Fira Sans-Bold.ufo
<glyph name="plus" format="1">
  <advance width="550"/>
  <unicode hex="002B"/>
  <outline>
    <contour>
      <point x="195" y="567" type="line"/>
      <point x="195" y="407" type="line"/>
      <point x="40" y="407" type="line"/>
      <point x="40" y="257" type="line"/>
      <point x="195" y="257" type="line"/>
      <point x="195" y="97" type="line"/>
      <point x="355" y="97" type="line"/>
      <point x="355" y="257" type="line"/>
      <point x="510" y="257" type="line"/>
      <point x="510" y="407" type="line"/>
      <point x="355" y="407" type="line"/>
      <point x="355" y="567" type="line"/>
    </contour>
  </outline>
</glyph>
<glyph name="F" format="1">
  <advance width="485"/>
  <unicode hex="0046"/>
  <outline>
    <contour>
      <point x="249" y="0" type="line"/>
      <point x="249" y="258" type="line"/>
      <point x="438" y="258" type="line"/>
      <point x="438" y="401" type="line"/>
      <point x="249" y="401" type="line"/>
      <point x="249" y="553" type="line"/>
      <point x="464" y="553" type="line"/>
      <point x="485" y="696" type="line"/>
      <point x="43" y="696" type="line"/>
      <point x="43" y="0" type="line"/>
    </contour>
    <contour>
      <point x="274" y="696" type="move" name="top"/>
    </contour>
    <contour>
      <point x="146" y="0" type="move" name="bottom"/>
    </contour>
  </outline>
</glyph>
<glyph name="L" format="1">
  <advance width="522"/>
  <unicode hex="004C"/>
  <outline>
    <contour>
      <point x="43" y="696" type="line"/>
      <point x="43" y="0" type="line"/>
      <point x="491" y="0" type="line"/>
      <point x="512" y="158" type="line"/>
      <point x="249" y="158" type="line"/>
      <point x="249" y="696" type="line"/>
    </contour>
    <contour>
      <point x="267" y="0" type="move" name="bottom"/>
    </contour>
    <contour>
      <point x="146" y="696" type="move" name="top"/>
    </contour>
    <contour>
      <point x="259" y="696" type="move" name="topright"/>
    </contour>
    <contour>
      <point x="403" y="404" type="move" name="center"/>
    </contour>
  </outline>
</glyph>
<glyph name="q" format="1">
  <advance width="601"/>
  <unicode hex="0071"/>
  <outline>
    <contour>
      <point x="361" y="-207" type="line"/>
      <point x="559" y="-227" type="line"/>
      <point x="559" y="534" type="line"/>
      <point x="386" y="534" type="line"/>
      <point x="377" y="496" type="line"/>
      <point x="361" y="458" type="line"/>
    </contour>
    <contour>
      <point x="111" y="554"/>
      <point x="22" y="436"/>
      <point x="22" y="270" type="curve" smooth="yes"/>
      <point x="22" y="94"/>
      <point x="87" y="-20"/>
      <point x="225" y="-20" type="curve" smooth="yes"/>
      <point x="309" y="-20"/>
      <point x="355" y="25"/>
      <point x="383" y="72" type="curve"/>
      <point x="371" y="188" type="line"/>
      <point x="350" y="142"/>
      <point x="323" y="122"/>
      <point x="292" y="122" type="curve" smooth="yes"/>
      <point x="256" y="122"/>
      <point x="225" y="140"/>
      <point x="225" y="268" type="curve" smooth="yes"/>
      <point x="225" y="376"/>
      <point x="259" y="413"/>
      <point x="303" y="413" type="curve" smooth="yes"/>
      <point x="333" y="413"/>
      <point x="350" y="396"/>
      <point x="374" y="368" type="curve"/>
      <point x="386" y="487" type="line"/>
      <point x="345" y="536"/>
      <point x="298" y="554"/>
      <point x="246" y="554" type="curve" smooth="yes"/>
    </contour>
    <contour>
      <point x="303" y="534" type="move" name="top"/>
    </contour>
    <contour>
      <point x="303" y="-215" type="move" name="bottom"/>
    </contour>
  </outline>
</glyph>
<glyph name="cent" format="1">
  <advance width="479"/>
  <unicode hex="00A2"/>
  <outline>
    <contour>
      <point x="222" y="696" type="line"/>
      <point x="222" y="535" type="line"/>
      <point x="356" y="538" type="line"/>
      <point x="356" y="696" type="line"/>
    </contour>
    <contour>
      <point x="221" y="-165" type="line"/>
      <point x="356" y="-165" type="line"/>
      <point x="356" y="-5" type="line"/>
      <point x="221" y="-1" type="line"/>
    </contour>
    <component base="c"/>
  </outline>
</glyph>
<glyph name="multiply" format="1">
  <advance width="530"/>
  <unicode hex="00D7"/>
  <outline>
    <contour>
      <point x="262" y="406" type="line"/>
      <point x="152" y="525" type="line"/>
      <point x="46" y="419" type="line"/>
      <point x="159" y="303" type="line"/>
      <point x="46" y="193" type="line"/>
      <point x="152" y="87" type="line"/>
      <point x="267" y="206" type="line"/>
      <point x="378" y="87" type="line"/>
      <point x="484" y="193" type="line"/>
      <point x="370" y="309" type="line"/>
      <point x="484" y="419" type="line"/>
      <point x="378" y="525" type="line"/>
    </contour>
  </outline>
</glyph>
<glyph name="uni018D" format="1">
  <advance width="576"/>
  <unicode hex="018D"/>
  <outline>
    <contour>
      <point x="506" y="-3"/>
      <point x="487" y="42"/>
      <point x="361" y="103" type="curve" smooth="yes"/>
      <point x="236" y="163"/>
      <point x="220" y="179"/>
      <point x="220" y="282" type="curve" smooth="yes"/>
      <point x="220" y="376"/>
      <point x="243" y="412"/>
      <point x="289" y="412" type="curve" smooth="yes"/>
      <point x="337" y="412"/>
      <point x="358" y="375"/>
      <point x="358" y="282" type="curve" smooth="yes"/>
      <point x="358" y="215"/>
      <point x="352" y="164"/>
      <point x="294" y="114" type="curve"/>
      <point x="390" y="73" type="line"/>
      <point x="506" y="121"/>
      <point x="559" y="198"/>
      <point x="559" y="292" type="curve" smooth="yes"/>
      <point x="559" y="456"/>
      <point x="458" y="554"/>
      <point x="288" y="554" type="curve" smooth="yes"/>
      <point x="125" y="554"/>
      <point x="17" y="456"/>
      <point x="17" y="283" type="curve" smooth="yes"/>
      <point x="17" y="140"/>
      <point x="82" y="67"/>
      <point x="232" y="8" type="curve" smooth="yes"/>
      <point x="313" y="-24"/>
      <point x="320" y="-35"/>
      <point x="320" y="-59" type="curve" smooth="yes"/>
      <point x="320" y="-80"/>
      <point x="302" y="-94"/>
      <point x="257" y="-94" type="curve" smooth="yes"/>
      <point x="218" y="-94"/>
      <point x="186" y="-81"/>
      <point x="156" y="-62" type="curve"/>
      <point x="69" y="-162" type="line"/>
      <point x="111" y="-197"/>
      <point x="181" y="-227"/>
      <point x="268" y="-227" type="curve" smooth="yes"/>
      <point x="438" y="-227"/>
      <point x="506" y="-153"/>
      <point x="506" y="-65" type="curve" smooth="yes"/>
    </contour>
    <contour>
      <point x="288" y="534" type="move" name="top"/>
    </contour>
    <contour>
      <point x="288" y="-215" type="move" name="bottom"/>
    </contour>
  </outline>
</glyph>
<glyph name="uni018E" format="1">
  <advance width="520"/>
  <unicode hex="018E"/>
  <outline>
    <contour>
      <point x="30" y="553" type="line"/>
      <point x="271" y="553" type="line"/>
      <point x="271" y="423" type="line"/>
      <point x="69" y="423" type="line"/>
      <point x="69" y="284" type="line"/>
      <point x="271" y="284" type="line"/>
      <point x="271" y="144" type="line"/>
      <point x="25" y="144" type="line"/>
      <point x="25" y="0" type="line"/>
      <point x="477" y="0" type="line"/>
      <point x="477" y="696" type="line"/>
      <point x="30" y="696" type="line"/>
    </contour>
    <contour>
      <point x="240" y="696" type="move" name="top"/>
    </contour>
    <contour>
      <point x="238" y="0" type="move" name="bottom"/>
    </contour>
  </outline>
</glyph>
<glyph name="uni0199" format="1">
  <advance width="576"/>
  <unicode hex="0199"/>
  <outline>
    <contour>
      <point x="387" y="534" type="line"/>
      <point x="244" y="292" type="line"/>
      <point x="372" y="0" type="line"/>
      <point x="591" y="0" type="line"/>
      <point x="442" y="300" type="line"/>
      <point x="583" y="534" type="line"/>
    </contour>
    <contour>
      <point x="42" y="534" type="line"/>
      <point x="42" y="0" type="line"/>
      <point x="240" y="0" type="line"/>
      <point x="240" y="554" type="line"/>
    </contour>
    <component base="hookaboveHELPER" xOffset="12"/>
  </outline>
</glyph>
<glyph name="uni019D" format="1">
  <advance width="651"/>
  <unicode hex="019D"/>
  <outline>
    <contour>
      <point x="140" y="-227"/>
      <point x="225" y="-157"/>
      <point x="225" y="-16" type="curve" smooth="yes"/>
      <point x="225" y="1" type="line"/>
      <point x="43" y="1" type="line"/>
      <point x="43" y="-34" type="line" smooth="yes"/>
      <point x="43" y="-69"/>
      <point x="24" y="-87"/>
      <point x="-9" y="-87" type="curve" smooth="yes"/>
      <point x="-37" y="-87"/>
      <point x="-53" y="-79"/>
      <point x="-77" y="-67" type="curve"/>
      <point x="-141" y="-182" type="line"/>
      <point x="-105" y="-208"/>
      <point x="-56" y="-227"/>
      <point x="16" y="-227" type="curve" smooth="yes"/>
    </contour>
    <component base="N"/>
  </outline>
</glyph>
<glyph name="uni01BD" format="1">
  <advance width="496"/>
  <unicode hex="01BD"/>
  <outline>
    <contour>
      <point x="56" y="534" type="line"/>
      <point x="56" y="214" type="line"/>
      <point x="183" y="214" type="line"/>
      <point x="200" y="220"/>
      <point x="217" y="225"/>
      <point x="236" y="225" type="curve" smooth="yes"/>
      <point x="263" y="225"/>
      <point x="282" y="210"/>
      <point x="282" y="176" type="curve" smooth="yes"/>
      <point x="282" y="142"/>
      <point x="261" y="122"/>
      <point x="221" y="122" type="curve" smooth="yes"/>
      <point x="178" y="122"/>
      <point x="152" y="137"/>
      <point x="108" y="170" type="curve"/>
      <point x="10" y="67" type="line"/>
      <point x="63" y="15"/>
      <point x="126" y="-20"/>
      <point x="228" y="-20" type="curve" smooth="yes"/>
      <point x="374" y="-20"/>
      <point x="476" y="57"/>
      <point x="476" y="175" type="curve" smooth="yes"/>
      <point x="476" y="290"/>
      <point x="394" y="349"/>
      <point x="302" y="349" type="curve" smooth="yes"/>
      <point x="271" y="349"/>
      <point x="246" y="345"/>
      <point x="226" y="338" type="curve"/>
      <point x="226" y="395" type="line"/>
      <point x="416" y="395" type="line"/>
      <point x="442" y="534" type="line"/>
    </contour>
    <contour>
      <point x="248" y="534" type="move" name="top"/>
    </contour>
    <contour>
      <point x="248" y="0" type="move" name="bottom"/>
    </contour>
  </outline>
</glyph>
<glyph name="uni0239" format="1">
  <advance width="878"/>
  <unicode hex="0239"/>
  <outline>
    <contour>
      <point x="108" y="554"/>
      <point x="22" y="436"/>
      <point x="22" y="270" type="curve" smooth="yes"/>
      <point x="22" y="94"/>
      <point x="86" y="-20"/>
      <point x="212" y="-20" type="curve" smooth="yes"/>
      <point x="289" y="-20"/>
      <point x="336" y="20"/>
      <point x="363" y="67" type="curve"/>
      <point x="351" y="188" type="line"/>
      <point x="330" y="142"/>
      <point x="303" y="122"/>
      <point x="281" y="122" type="curve" smooth="yes"/>
      <point x="256" y="122"/>
      <point x="225" y="140"/>
      <point x="225" y="268" type="curve" smooth="yes"/>
      <point x="225" y="376"/>
      <point x="253" y="413"/>
      <point x="287" y="413" type="curve" smooth="yes"/>
      <point x="313" y="413"/>
      <point x="330" y="396"/>
      <point x="354" y="348" type="curve"/>
      <point x="376" y="447" type="line"/>
      <point x="335" y="526"/>
      <point x="285" y="554"/>
      <point x="232" y="554" type="curve" smooth="yes"/>
    </contour>
    <contour>
      <point x="364" y="534" type="line"/>
      <point x="354" y="466" type="line"/>
      <point x="341" y="433" type="line"/>
      <point x="341" y="-227" type="line"/>
      <point x="539" y="-207" type="line"/>
      <point x="539" y="378" type="line"/>
      <point x="527" y="466" type="line"/>
      <point x="517" y="534" type="line"/>
    </contour>
    <contour>
      <point x="605" y="554"/>
      <point x="560" y="534"/>
      <point x="512" y="455" type="curve"/>
      <point x="528" y="350" type="line"/>
      <point x="550" y="392"/>
      <point x="579" y="412"/>
      <point x="601" y="412" type="curve" smooth="yes"/>
      <point x="631" y="412"/>
      <point x="653" y="395"/>
      <point x="653" y="266" type="curve" smooth="yes"/>
      <point x="653" y="158"/>
      <point x="622" y="121"/>
      <point x="595" y="121" type="curve" smooth="yes"/>
      <point x="569" y="121"/>
      <point x="549" y="139"/>
      <point x="527" y="188" type="curve"/>
      <point x="528" y="62" type="line"/>
      <point x="553" y="7"/>
      <point x="607" y="-20"/>
      <point x="659" y="-20" type="curve" smooth="yes"/>
      <point x="771" y="-20"/>
      <point x="856" y="103"/>
      <point x="856" y="269" type="curve" smooth="yes"/>
      <point x="856" y="445"/>
      <point x="792" y="554"/>
      <point x="667" y="554" type="curve" smooth="yes"/>
    </contour>
    <contour>
      <point x="442" y="534" type="move" name="top"/>
    </contour>
    <contour>
      <point x="442" y="-215" type="move" name="bottom"/>
    </contour>
  </outline>
</glyph>
<glyph name="uni0244" format="1">
  <advance width="676"/>
  <unicode hex="0244"/>
  <outline>
    <contour>
      <point x="627" y="601" type="line"/>
      <point x="0" y="601" type="line"/>
      <point x="0" y="495" type="line"/>
      <point x="49" y="495" type="line"/>
      <point x="676" y="495" type="line"/>
      <point x="676" y="601" type="line"/>
    </contour>
    <component base="U" xOffset="16"/>
  </outline>
</glyph>
<glyph name="uni024A" format="1">
  <advance width="675"/>
  <unicode hex="024A"/>
  <outline>
    <contour>
      <point x="632" y="0" type="line"/>
      <point x="632" y="696" type="line"/>
      <point x="448" y="696" type="line"/>
      <point x="426" y="544" type="line"/>
      <point x="426" y="0" type="line"/>
    </contour>
    <contour>
      <point x="445" y="-20"/>
      <point x="480" y="99"/>
      <point x="524" y="191" type="curve"/>
      <point x="470" y="209" type="line"/>
      <point x="442" y="148"/>
      <point x="393" y="121"/>
      <point x="343" y="121" type="curve" smooth="yes"/>
      <point x="272" y="121"/>
      <point x="234" y="173"/>
      <point x="234" y="339" type="curve" smooth="yes"/>
      <point x="234" y="510"/>
      <point x="270" y="570"/>
      <point x="343" y="570" type="curve" smooth="yes"/>
      <point x="385" y="570"/>
      <point x="416" y="551"/>
      <point x="437" y="527" type="curve"/>
      <point x="487" y="608" type="line"/>
      <point x="448" y="661"/>
      <point x="393" y="716"/>
      <point x="297" y="716" type="curve" smooth="yes"/>
      <point x="136" y="716"/>
      <point x="20" y="575"/>
      <point x="20" y="339" type="curve" smooth="yes"/>
      <point x="20" y="118"/>
      <point x="126" y="-20"/>
      <point x="295" y="-20" type="curve" smooth="yes"/>
    </contour>
    <component base="hookHELPER.case" xOffset="844" xScale="-1"/>
    <contour>
      <point x="338" y="696" type="move" name="top"/>
    </contour>
    <contour>
      <point x="338" y="-215" type="move" name="bottom"/>
    </contour>
  </outline>
</glyph>
<glyph name="uni024B" format="1">
  <advance width="601"/>
  <unicode hex="024B"/>
  <outline>
    <contour>
      <point x="309" y="-20"/>
      <point x="356" y="25"/>
      <point x="383" y="72" type="curve"/>
      <point x="371" y="188" type="line"/>
      <point x="350" y="142"/>
      <point x="323" y="122"/>
      <point x="294" y="122" type="curve" smooth="yes"/>
      <point x="256" y="122"/>
      <point x="225" y="140"/>
      <point x="225" y="268" type="curve" smooth="yes"/>
      <point x="225" y="376"/>
      <point x="259" y="413"/>
      <point x="303" y="413" type="curve" smooth="yes"/>
      <point x="333" y="413"/>
      <point x="350" y="396"/>
      <point x="374" y="368" type="curve"/>
      <point x="386" y="487" type="line"/>
      <point x="345" y="536"/>
      <point x="295" y="554"/>
      <point x="250" y="554" type="curve" smooth="yes"/>
      <point x="108" y="554"/>
      <point x="22" y="436"/>
      <point x="22" y="270" type="curve" smooth="yes"/>
      <point x="22" y="94"/>
      <point x="86" y="-20"/>
      <point x="225" y="-20" type="curve" smooth="yes"/>
    </contour>
    <contour>
      <point x="574" y="-227"/>
      <point x="616" y="-219"/>
      <point x="639" y="-209" type="curve"/>
      <point x="604" y="-68" type="line"/>
      <point x="599" y="-70"/>
      <point x="592" y="-72"/>
      <point x="583" y="-72" type="curve" smooth="yes"/>
      <point x="567" y="-72"/>
      <point x="559" y="-63"/>
      <point x="559" y="-45" type="curve" smooth="yes"/>
      <point x="559" y="1" type="line"/>
      <point x="361" y="1" type="line"/>
      <point x="361" y="-53" type="line" smooth="yes"/>
      <point x="361" y="-165"/>
      <point x="421" y="-227"/>
      <point x="529" y="-227" type="curve" smooth="yes"/>
    </contour>
    <contour>
      <point x="559" y="0" type="line"/>
      <point x="559" y="534" type="line"/>
      <point x="386" y="534" type="line"/>
      <point x="377" y="496" type="line"/>
      <point x="361" y="458" type="line"/>
      <point x="361" y="0" type="line"/>
    </contour>
    <contour>
      <point x="303" y="534" type="move" name="top"/>
    </contour>
    <contour>
      <point x="303" y="-215" type="move" name="bottom"/>
    </contour>
  </outline>
</glyph>
<glyph name="uni026E" format="1">
  <advance width="736"/>
  <unicode hex="026E"/>
  <outline>
    <contour>
      <point x="623" y="-227"/>
      <point x="726" y="-122"/>
      <point x="726" y="11" type="curve" smooth="yes"/>
      <point x="726" y="144"/>
      <point x="642" y="207"/>
      <point x="506" y="217" type="curve"/>
      <point x="486" y="217" type="line"/>
      <point x="316" y="109" type="line"/>
      <point x="417" y="109" type="line" smooth="yes"/>
      <point x="483" y="109"/>
      <point x="524" y="88"/>
      <point x="524" y="25" type="curve" smooth="yes"/>
      <point x="524" y="-48"/>
      <point x="480" y="-79"/>
      <point x="426" y="-79" type="curve" smooth="yes"/>
      <point x="385" y="-79"/>
      <point x="353" y="-67"/>
      <point x="317" y="-40" type="curve"/>
      <point x="229" y="-157" type="line"/>
      <point x="280" y="-200"/>
      <point x="350" y="-227"/>
      <point x="440" y="-227" type="curve" smooth="yes"/>
    </contour>
    <contour>
      <point x="464" y="149" type="line"/>
      <point x="689" y="402" type="line"/>
      <point x="689" y="534" type="line"/>
      <point x="234" y="534" type="line"/>
      <point x="234" y="390" type="line"/>
      <point x="466" y="390" type="line"/>
      <point x="316" y="216" type="line"/>
      <point x="316" y="109" type="line"/>
    </contour>
    <component base="l"/>
    <contour>
      <point x="430" y="744" type="move" name="top"/>
    </contour>
    <contour>
      <point x="439" y="-215" type="move" name="bottom"/>
    </contour>
  </outline>
</glyph>
<glyph name="uni0270" format="1">
  <advance width="837"/>
  <unicode hex="0270"/>
  <outline>
    <contour>
      <point x="597" y="-207" type="line"/>
      <point x="795" y="-227" type="line"/>
      <point x="795" y="98" type="line"/>
      <point x="597" y="98" type="line"/>
    </contour>
    <component base="uni026F"/>
    <contour>
      <point x="413" y="-215" type="move" name="bottom"/>
    </contour>
  </outline>
</glyph>
<glyph name="uni0271" format="1">
  <advance width="837"/>
  <unicode hex="0271"/>
  <outline>
    <contour>
      <point x="709" y="-227"/>
      <point x="800" y="-157"/>
      <point x="800" y="-16" type="curve" smooth="yes"/>
      <point x="800" y="1" type="line"/>
      <point x="602" y="1" type="line"/>
      <point x="602" y="-34" type="line" smooth="yes"/>
      <point x="602" y="-69"/>
      <point x="583" y="-87"/>
      <point x="550" y="-87" type="curve" smooth="yes"/>
      <point x="522" y="-87"/>
      <point x="506" y="-79"/>
      <point x="482" y="-67" type="curve"/>
      <point x="418" y="-182" type="line"/>
      <point x="454" y="-208"/>
      <point x="503" y="-227"/>
      <point x="574" y="-227" type="curve" smooth="yes"/>
    </contour>
    <component base="m"/>
    <contour>
      <point x="413" y="-215" type="move" name="bottom"/>
    </contour>
  </outline>
</glyph>
<glyph name="uni0279" format="1">
  <advance width="410"/>
  <unicode hex="0279"/>
  <outline>
    <component base="r" xOffset="410" yOffset="534" xScale="-1" yScale="-1"/>
    <contour>
      <point x="267" y="534" type="move" name="top"/>
    </contour>
    <contour>
      <point x="152" y="0" type="move" name="bottom"/>
    </contour>
  </outline>
</glyph>
<glyph name="uni0280" format="1">
  <advance width="532"/>
  <unicode hex="0280"/>
  <outline>
    <contour>
      <point x="42" y="534" type="line"/>
      <point x="42" y="0" type="line"/>
      <point x="230" y="0" type="line"/>
      <point x="230" y="414" type="line"/>
      <point x="257" y="414" type="line" smooth="yes"/>
      <point x="295" y="414"/>
      <point x="315" y="403"/>
      <point x="315" y="351" type="curve" smooth="yes"/>
      <point x="315" y="298"/>
      <point x="296" y="283"/>
      <point x="255" y="283" type="curve" smooth="yes"/>
      <point x="226" y="283" type="line"/>
      <point x="226" y="172" type="line"/>
      <point x="299" y="172" type="line" smooth="yes"/>
      <point x="445" y="172"/>
      <point x="504" y="250"/>
      <point x="504" y="350" type="curve" smooth="yes"/>
      <point x="504" y="478"/>
      <point x="416" y="534"/>
      <point x="262" y="534" type="curve" smooth="yes"/>
    </contour>
    <contour>
      <point x="249" y="184" type="line"/>
      <point x="343" y="0" type="line"/>
      <point x="547" y="0" type="line"/>
      <point x="412" y="222" type="line"/>
    </contour>
    <contour>
      <point x="274" y="534" type="move" name="top"/>
    </contour>
    <contour>
      <point x="274" y="0" type="move" name="bottom"/>
    </contour>
  </outline>
</glyph>
<glyph name="uni0281" format="1">
  <advance width="532"/>
  <unicode hex="0281"/>
  <outline>
    <contour>
      <point x="416" y="0"/>
      <point x="504" y="56"/>
      <point x="504" y="187" type="curve" smooth="yes"/>
      <point x="504" y="284"/>
      <point x="445" y="362"/>
      <point x="299" y="362" type="curve" smooth="yes"/>
      <point x="226" y="362" type="line"/>
      <point x="226" y="251" type="line"/>
      <point x="255" y="251" type="line" smooth="yes"/>
      <point x="296" y="251"/>
      <point x="315" y="236"/>
      <point x="315" y="186" type="curve" smooth="yes"/>
      <point x="315" y="131"/>
      <point x="295" y="120"/>
      <point x="257" y="120" type="curve" smooth="yes"/>
      <point x="230" y="120" type="line"/>
      <point x="230" y="534" type="line"/>
      <point x="42" y="534" type="line"/>
      <point x="42" y="0" type="line"/>
      <point x="262" y="0" type="line" smooth="yes"/>
    </contour>
    <contour>
      <point x="547" y="534" type="line"/>
      <point x="343" y="534" type="line"/>
      <point x="249" y="350" type="line"/>
      <point x="412" y="312" type="line"/>
    </contour>
    <contour>
      <point x="274" y="534" type="move" name="top"/>
    </contour>
    <contour>
      <point x="274" y="0" type="move" name="bottom"/>
    </contour>
  </outline>
</glyph>
<glyph name="uni0283" format="1">
  <advance width="282"/>
  <unicode hex="0283"/>
  <outline>
    <contour>
      <point x="42" y="534" type="line"/>
      <point x="42" y="0" type="line"/>
      <point x="240" y="0" type="line"/>
      <point x="240" y="534" type="line"/>
    </contour>
    <component base="hookaboveHELPER2" xOffset="12"/>
    <component base="hookHELPER" xOffset="-162"/>
    <contour>
      <point x="254" y="744" type="move" name="top"/>
    </contour>
    <contour>
      <point x="44" y="-215" type="move" name="bottom"/>
    </contour>
  </outline>
</glyph>
<glyph name="uni0289" format="1">
  <advance width="622"/>
  <unicode hex="0289"/>
  <outline>
    <contour>
      <point x="65" y="284" type="line"/>
      <point x="622" y="284" type="line"/>
      <point x="622" y="399" type="line"/>
      <point x="551" y="399" type="line"/>
      <point x="-5" y="399" type="line"/>
      <point x="-5" y="284" type="line"/>
    </contour>
    <component base="u" xOffset="28"/>
    <contour>
      <point x="311" y="534" type="move" name="top"/>
    </contour>
    <contour>
      <point x="311" y="0" type="move" name="bottom"/>
    </contour>
  </outline>
</glyph>
<glyph name="uni028F" format="1">
  <advance width="522"/>
  <unicode hex="028F"/>
  <outline>
    <contour>
      <point x="337" y="534" type="line"/>
      <point x="264" y="311" type="line"/>
      <point x="191" y="534" type="line"/>
      <point x="-20" y="534" type="line"/>
      <point x="162" y="188" type="line"/>
      <point x="162" y="0" type="line"/>
      <point x="360" y="0" type="line"/>
      <point x="360" y="189" type="line"/>
      <point x="542" y="534" type="line"/>
    </contour>
    <contour>
      <point x="261" y="534" type="move" name="top"/>
    </contour>
    <contour>
      <point x="261" y="0" type="move" name="bottom"/>
    </contour>
  </outline>
</glyph>
<glyph name="uni02A1" format="1">
  <advance width="500"/>
  <unicode hex="02A1"/>
  <outline>
    <contour>
      <point x="63" y="120" type="line"/>
      <point x="130" y="120" type="line"/>
      <point x="417" y="120" type="line"/>
      <point x="417" y="226" type="line"/>
      <point x="63" y="226" type="line"/>
    </contour>
    <component base="uni0294"/>
  </outline>
</glyph>
<glyph name="uni02A2" format="1">
  <advance width="500"/>
  <unicode hex="02A2"/>
  <outline>
    <contour>
      <point x="83" y="226" type="line"/>
      <point x="83" y="120" type="line"/>
      <point x="370" y="120" type="line"/>
      <point x="437" y="120" type="line"/>
      <point x="437" y="226" type="line"/>
    </contour>
    <component base="uni0295"/>
  </outline>
</glyph>
<glyph name="gravecomb" format="1">
  <advance width="364"/>
  <unicode hex="0300"/>
  <outline>
    <contour>
      <point x="30" y="712" type="line"/>
      <point x="281" y="613" type="line"/>
      <point x="334" y="712" type="line"/>
      <point x="104" y="856" type="line"/>
    </contour>
    <contour>
      <point x="184" y="856" type="move" name="top"/>
    </contour>
    <contour>
      <point x="172" y="534" type="move" name="_top"/>
    </contour>
  </outline>
</glyph>
<glyph name="uni0304" format="1">
  <advance width="385"/>
  <unicode hex="0304"/>
  <outline>
    <contour>
      <point x="355" y="782" type="line"/>
      <point x="30" y="782" type="line"/>
      <point x="30" y="648" type="line"/>
      <point x="355" y="648" type="line"/>
    </contour>
    <contour>
      <point x="193" y="750" type="move" name="top"/>
    </contour>
    <contour>
      <point x="193" y="534" type="move" name="_top"/>
    </contour>
  </outline>
</glyph>
<glyph name="uni030D" format="1">
  <advance width="230"/>
  <unicode hex="030D"/>
  <outline>
    <contour>
      <point x="200" y="616" type="line"/>
      <point x="200" y="896" type="line"/>
      <point x="30" y="896" type="line"/>
      <point x="30" y="616" type="line"/>
    </contour>
    <contour>
      <point x="117" y="896" type="move" name="top"/>
    </contour>
    <contour>
      <point x="115" y="534" type="move" name="_top"/>
    </contour>
  </outline>
</glyph>
<glyph name="uni030F" format="1">
  <advance width="469"/>
  <unicode hex="030F"/>
  <outline>
    <contour>
      <point x="30" y="816" type="line"/>
      <point x="161" y="620" type="line"/>
      <point x="257" y="666" type="line"/>
      <point x="153" y="877" type="line"/>
    </contour>
    <contour>
      <point x="218" y="821" type="line"/>
      <point x="341" y="624" type="line"/>
      <point x="439" y="663" type="line"/>
      <point x="343" y="877" type="line"/>
    </contour>
    <contour>
      <point x="237" y="877" type="move" name="top"/>
    </contour>
    <contour>
      <point x="275" y="534" type="move" name="_top"/>
    </contour>
  </outline>
</glyph>
<glyph name="uni0312" format="1">
  <advance width="244"/>
  <unicode hex="0312"/>
  <outline>
    <component base="uni0326" xOffset="244" yOffset="511" xScale="-1" yScale="-1"/>
    <contour>
      <point x="128" y="534" type="move" name="_top"/>
    </contour>
  </outline>
</glyph>
<glyph name="uni0313" format="1">
  <advance width="244"/>
  <unicode hex="0313"/>
  <outline>
    <component base="uni0326" yOffset="925"/>
    <contour>
      <point x="91" y="534" type="move" name="_top"/>
    </contour>
  </outline>
</glyph>
<glyph name="uni0318" format="1">
  <advance width="284"/>
  <unicode hex="0318"/>
  <outline>
    <contour>
      <point x="140" y="-154" type="line"/>
      <point x="30" y="-154" type="line"/>
      <point x="30" y="-257" type="line"/>
      <point x="140" y="-257" type="line"/>
      <point x="140" y="-355" type="line"/>
      <point x="254" y="-355" type="line"/>
      <point x="254" y="-55" type="line"/>
      <point x="140" y="-55" type="line"/>
    </contour>
    <contour>
      <point x="142" y="0" type="move" name="_bottom"/>
    </contour>
    <contour>
      <point x="144" y="-356" type="move" name="bottom"/>
    </contour>
  </outline>
</glyph>
<glyph name="uni031B" format="1">
  <advance width="234"/>
  <unicode hex="031B"/>
  <outline>
    <contour>
      <point x="140" y="381"/>
      <point x="204" y="426"/>
      <point x="204" y="519" type="curve" smooth="yes"/>
      <point x="204" y="565"/>
      <point x="194" y="592"/>
      <point x="185" y="611" type="curve"/>
      <point x="65" y="596" type="line"/>
      <point x="72" y="576"/>
      <point x="77" y="558"/>
      <point x="77" y="531" type="curve" smooth="yes"/>
      <point x="77" y="492"/>
      <point x="65" y="474"/>
      <point x="30" y="471" type="curve"/>
      <point x="40" y="381" type="line"/>
    </contour>
    <contour>
      <point x="50" y="534" type="move" name="_topright"/>
    </contour>
    <contour>
      <point x="102" y="534" type="move" name="topright"/>
    </contour>
  </outline>
</glyph>
<glyph name="uni0321" format="1">
  <advance width="442"/>
  <unicode hex="0321"/>
  <outline>
    <component base="hookHELPER" xOffset="10"/>
    <contour>
      <point x="325" y="0" type="move" name="_bottom"/>
    </contour>
    <contour>
      <point x="233" y="-227" type="move" name="bottom"/>
    </contour>
  </outline>
</glyph>
<glyph name="uni0324" format="1">
  <advance width="495"/>
  <unicode hex="0324"/>
  <outline>
    <component base="uni0308" yOffset="-882"/>
    <contour>
      <point x="248" y="0" type="move" name="_bottom"/>
    </contour>
    <contour>
      <point x="248" y="-249" type="move" name="bottom"/>
    </contour>
  </outline>
</glyph>
<glyph name="uni0328" format="1">
  <advance width="309"/>
  <unicode hex="0328"/>
  <outline>
    <contour>
      <point x="127" y="29"/>
      <point x="30" y="-24"/>
      <point x="30" y="-128" type="curve" smooth="yes"/>
      <point x="30" y="-208"/>
      <point x="100" y="-254"/>
      <point x="190" y="-254" type="curve" smooth="yes"/>
      <point x="217" y="-254"/>
      <point x="242" y="-251"/>
      <point x="264" y="-246" type="curve"/>
      <point x="276" y="-131" type="line"/>
      <point x="254" y="-136"/>
      <point x="234" y="-139"/>
      <point x="215" y="-139" type="curve" smooth="yes"/>
      <point x="183" y="-139"/>
      <point x="164" y="-125"/>
      <point x="164" y="-95" type="curve" smooth="yes"/>
      <point x="164" y="-71"/>
      <point x="183" y="-32"/>
      <point x="279" y="0" type="curve"/>
      <point x="248" y="61" type="line"/>
    </contour>
    <contour>
      <point x="289" y="0" type="move" name="_ogonek"/>
    </contour>
  </outline>
</glyph>
<glyph name="uni0373" format="1">
  <advance width="535"/>
  <unicode hex="0373"/>
  <outline>
    <contour>
      <point x="172" y="501" type="line"/>
      <point x="172" y="-227" type="line"/>
      <point x="370" y="-207" type="line"/>
      <point x="370" y="501" type="line"/>
    </contour>
    <contour>
      <point x="53" y="388"/>
      <point x="67" y="390"/>
      <point x="116" y="390" type="curve" smooth="yes"/>
      <point x="535" y="390" type="line"/>
      <point x="535" y="534" type="line"/>
      <point x="162" y="534" type="line" smooth="yes"/>
      <point x="68" y="534"/>
      <point x="28" y="524"/>
      <point x="-10" y="506" type="curve"/>
      <point x="25" y="379" type="line"/>
    </contour>
    <contour>
      <point x="271" y="534" type="move" name="top"/>
    </contour>
    <contour>
      <point x="271" y="-215" type="move" name="bottom"/>
    </contour>
  </outline>
</glyph>
<glyph name="tonos" format="1">
  <advance width="247"/>
  <unicode hex="0384"/>
  <outline>
    <contour>
      <point x="43" y="596" type="line"/>
      <point x="165" y="596" type="line"/>
      <point x="217" y="839" type="line"/>
      <point x="30" y="853" type="line"/>
    </contour>
    <contour>
      <point x="104" y="534" type="move" name="_top"/>
    </contour>
  </outline>
</glyph>
<glyph name="dieresistonos" format="1">
  <advance width="545"/>
  <unicode hex="0385"/>
  <outline>
    <contour>
      <point x="71" y="772"/>
      <point x="30" y="731"/>
      <point x="30" y="680" type="curve" smooth="yes"/>
      <point x="30" y="628"/>
      <point x="71" y="587"/>
      <point x="125" y="587" type="curve" smooth="yes"/>
      <point x="177" y="587"/>
      <point x="220" y="628"/>
      <point x="220" y="680" type="curve" smooth="yes"/>
      <point x="220" y="731"/>
      <point x="177" y="772"/>
      <point x="125" y="772" type="curve" smooth="yes"/>
    </contour>
    <contour>
      <point x="366" y="772"/>
      <point x="325" y="731"/>
      <point x="325" y="680" type="curve" smooth="yes"/>
      <point x="325" y="628"/>
      <point x="366" y="587"/>
      <point x="420" y="587" type="curve" smooth="yes"/>
      <point x="472" y="587"/>
      <point x="515" y="628"/>
      <point x="515" y="680" type="curve" smooth="yes"/>
      <point x="515" y="731"/>
      <point x="472" y="772"/>
      <point x="420" y="772" type="curve" smooth="yes"/>
    </contour>
    <contour>
      <point x="218" y="748" type="line"/>
      <point x="323" y="748" type="line"/>
      <point x="368" y="957" type="line"/>
      <point x="207" y="969" type="line"/>
    </contour>
    <contour>
      <point x="273" y="534" type="move" name="_top"/>
    </contour>
  </outline>
</glyph>
<glyph name="rho" format="1">
  <advance width="589"/>
  <unicode hex="03C1"/>
  <outline>
    <contour>
      <point x="116" y="554"/>
      <point x="32" y="452"/>
      <point x="32" y="277" type="curve"/>
      <point x="32" y="-227" type="line"/>
      <point x="230" y="-207" type="line"/>
      <point x="230" y="263" type="line" smooth="yes"/>
      <point x="230" y="373"/>
      <point x="248" y="413"/>
      <point x="296" y="413" type="curve" smooth="yes"/>
      <point x="334" y="413"/>
      <point x="364" y="391"/>
      <point x="364" y="266" type="curve" smooth="yes"/>
      <point x="364" y="158"/>
      <point x="334" y="121"/>
      <point x="293" y="121" type="curve" smooth="yes"/>
      <point x="261" y="121"/>
      <point x="241" y="136"/>
      <point x="218" y="188" type="curve"/>
      <point x="209" y="71" type="line"/>
      <point x="250" y="2"/>
      <point x="298" y="-20"/>
      <point x="354" y="-20" type="curve"/>
      <point x="482" y="-20"/>
      <point x="567" y="103"/>
      <point x="567" y="269" type="curve" smooth="yes"/>
      <point x="567" y="458"/>
      <point x="469" y="554"/>
      <point x="296" y="554" type="curve" smooth="yes"/>
    </contour>
    <contour>
      <point x="296" y="534" type="move" name="top"/>
    </contour>
    <contour>
      <point x="292" y="-215" type="move" name="bottom"/>
    </contour>
  </outline>
</glyph>
<glyph name="tau" format="1">
  <advance width="495"/>
  <unicode hex="03C4"/>
  <outline>
    <contour>
      <point x="391" y="121" type="line"/>
      <point x="360" y="137"/>
      <point x="350" y="157"/>
      <point x="350" y="202" type="curve" smooth="yes"/>
      <point x="350" y="407" type="line"/>
      <point x="152" y="407" type="line"/>
      <point x="152" y="176" type="line" smooth="yes"/>
      <point x="152" y="52"/>
      <point x="221" y="-4"/>
      <point x="335" y="-20" type="curve"/>
    </contour>
    <contour>
      <point x="53" y="388"/>
      <point x="67" y="390"/>
      <point x="116" y="390" type="curve" smooth="yes"/>
      <point x="495" y="390" type="line"/>
      <point x="495" y="534" type="line"/>
      <point x="152" y="534" type="line" smooth="yes"/>
      <point x="68" y="534"/>
      <point x="28" y="524"/>
      <point x="-10" y="506" type="curve"/>
      <point x="25" y="379" type="line"/>
    </contour>
    <contour>
      <point x="243" y="534" type="move" name="top"/>
    </contour>
    <contour>
      <point x="243" y="0" type="move" name="bottom"/>
    </contour>
  </outline>
</glyph>
<glyph name="uni03F1" format="1">
  <advance width="589"/>
  <unicode hex="03F1"/>
  <outline>
    <contour>
      <point x="482" y="20"/>
      <point x="567" y="143"/>
      <point x="567" y="289" type="curve" smooth="yes"/>
      <point x="567" y="458"/>
      <point x="469" y="554"/>
      <point x="296" y="554" type="curve" smooth="yes"/>
      <point x="116" y="554"/>
      <point x="32" y="452"/>
      <point x="32" y="277" type="curve"/>
      <point x="32" y="52" type="line"/>
      <point x="230" y="17" type="line"/>
      <point x="230" y="263" type="line" smooth="yes"/>
      <point x="230" y="373"/>
      <point x="248" y="413"/>
      <point x="298" y="413" type="curve" smooth="yes"/>
      <point x="334" y="413"/>
      <point x="364" y="391"/>
      <point x="364" y="286" type="curve" smooth="yes"/>
      <point x="364" y="198"/>
      <point x="334" y="161"/>
      <point x="293" y="161" type="curve" smooth="yes"/>
      <point x="261" y="161"/>
      <point x="241" y="176"/>
      <point x="218" y="228" type="curve"/>
      <point x="209" y="111" type="line"/>
      <point x="250" y="42"/>
      <point x="298" y="20"/>
      <point x="354" y="20" type="curve"/>
    </contour>
    <contour>
      <point x="517" y="-194" type="line"/>
      <point x="497" y="-110"/>
      <point x="449" y="-75"/>
      <point x="352" y="-60" type="curve" smooth="yes"/>
      <point x="261" y="-46"/>
      <point x="230" y="-31"/>
      <point x="230" y="17" type="curve"/>
      <point x="32" y="52" type="line"/>
      <point x="32" y="-95"/>
      <point x="100" y="-159"/>
      <point x="230" y="-176" type="curve" smooth="yes"/>
      <point x="318" y="-188"/>
      <point x="337" y="-194"/>
      <point x="349" y="-227" type="curve"/>
    </contour>
    <contour>
      <point x="292" y="534" type="move" name="top"/>
    </contour>
    <contour>
      <point x="292" y="-215" type="move" name="bottom"/>
    </contour>
  </outline>
</glyph>
<glyph name="uni03FD" format="1">
  <advance width="614"/>
  <unicode hex="03FD"/>
  <outline>
    <contour>
      <point x="152" y="716"/>
      <point x="77" y="685"/>
      <point x="8" y="634" type="curve"/>
      <point x="104" y="521" type="line"/>
      <point x="149" y="549"/>
      <point x="191" y="568"/>
      <point x="252" y="568" type="curve" smooth="yes"/>
      <point x="337" y="568"/>
      <point x="380" y="497"/>
      <point x="380" y="350" type="curve" smooth="yes"/>
      <point x="380" y="203"/>
      <point x="331" y="135"/>
      <point x="243" y="135" type="curve" smooth="yes"/>
      <point x="179" y="135"/>
      <point x="135" y="158"/>
      <point x="90" y="193" type="curve"/>
      <point x="0" y="77" type="line"/>
      <point x="64" y="19"/>
      <point x="142" y="-20"/>
      <point x="254" y="-20" type="curve" smooth="yes"/>
      <point x="463" y="-20"/>
      <point x="594" y="109"/>
      <point x="594" y="350" type="curve" smooth="yes"/>
      <point x="594" y="582"/>
      <point x="463" y="716"/>
      <point x="264" y="716" type="curve" smooth="yes"/>
    </contour>
    <contour>
      <point x="219" y="354" type="move" name="center"/>
    </contour>
    <contour>
      <point x="307" y="0" type="move" name="bottom"/>
    </contour>
    <contour>
      <point x="307" y="696" type="move" name="top"/>
    </contour>
  </outline>
</glyph>
<glyph name="uni042A" format="1">
  <advance width="737"/>
  <unicode hex="042A"/>
  <outline>
    <contour>
      <point x="380" y="696" type="line"/>
      <point x="5" y="696" type="line"/>
      <point x="5" y="546" type="line"/>
      <point x="174" y="546" type="line"/>
    </contour>
    <component base="uni042C" xOffset="131"/>
  </outline>
</glyph>
<glyph name="uni042D" format="1">
  <advance width="544"/>
  <unicode hex="042D"/>
  <outline>
    <contour>
      <point x="128" y="716"/>
      <point x="66" y="685"/>
      <point x="6" y="633" type="curve"/>
      <point x="102" y="521" type="line"/>
      <point x="139" y="554"/>
      <point x="169" y="571"/>
      <point x="215" y="571" type="curve" smooth="yes"/>
      <point x="280" y="571"/>
      <point x="313" y="521"/>
      <point x="318" y="402" type="curve"/>
      <point x="317" y="308" type="line"/>
      <point x="317" y="188"/>
      <point x="279" y="129"/>
      <point x="204" y="129" type="curve" smooth="yes"/>
      <point x="158" y="129"/>
      <point x="126" y="144"/>
      <point x="89" y="174" type="curve"/>
      <point x="0" y="64" type="line"/>
      <point x="55" y="11"/>
      <point x="122" y="-20"/>
      <point x="221" y="-20" type="curve" smooth="yes"/>
      <point x="407" y="-20"/>
      <point x="524" y="109"/>
      <point x="524" y="360" type="curve" smooth="yes"/>
      <point x="524" y="592"/>
      <point x="418" y="716"/>
      <point x="234" y="716" type="curve" smooth="yes"/>
    </contour>
    <contour>
      <point x="103" y="424" type="line"/>
      <point x="103" y="286" type="line"/>
      <point x="332" y="286" type="line"/>
      <point x="332" y="424" type="line"/>
    </contour>
    <contour>
      <point x="244" y="696" type="move" name="top"/>
    </contour>
    <contour>
      <point x="274" y="0" type="move" name="bottom"/>
    </contour>
  </outline>
</glyph>
<glyph name="uni0434" format="1">
  <advance width="553"/>
  <unicode hex="0434"/>
  <outline>
    <contour>
      <point x="155" y="135" type="line"/>
      <point x="223" y="158"/>
      <point x="253" y="220"/>
      <point x="268" y="379" type="curve" smooth="yes"/>
      <point x="271" y="410" type="line"/>
      <point x="324" y="410" type="line"/>
      <point x="324" y="142" type="line"/>
      <point x="31" y="142" type="line"/>
      <point x="31" y="0" type="line"/>
      <point x="506" y="0" type="line"/>
      <point x="506" y="534" type="line"/>
      <point x="104" y="534" type="line"/>
      <point x="89" y="363" type="line" smooth="yes"/>
      <point x="74" y="196"/>
      <point x="57" y="162"/>
      <point x="31" y="142" type="curve"/>
    </contour>
    <component base="descStraightcy" xOffset="321"/>
    <component base="descStraightcy" xOffset="242" xScale="-1"/>
    <contour>
      <point x="305" y="534" type="move" name="top"/>
    </contour>
    <contour>
      <point x="277" y="-215" type="move" name="bottom"/>
    </contour>
  </outline>
</glyph>
<glyph name="uni043B" format="1">
  <advance width="567"/>
  <unicode hex="043B"/>
  <outline>
    <contour>
      <point x="245" y="393" type="line"/>
      <point x="327" y="393" type="line"/>
      <point x="327" y="0" type="line"/>
      <point x="525" y="0" type="line"/>
      <point x="525" y="534" type="line"/>
      <point x="90" y="534" type="line"/>
    </contour>
    <contour>
      <point x="90" y="534" type="line"/>
      <point x="77" y="324" type="line" smooth="yes"/>
      <point x="67" y="167"/>
      <point x="59" y="157"/>
      <point x="0" y="127" type="curve"/>
      <point x="48" y="-13" type="line"/>
      <point x="219" y="20"/>
      <point x="236" y="102"/>
      <point x="256" y="317" type="curve" smooth="yes"/>
      <point x="263" y="393" type="line"/>
    </contour>
    <contour>
      <point x="284" y="534" type="move" name="top"/>
    </contour>
    <contour>
      <point x="284" y="0" type="move" name="bottom"/>
    </contour>
    <contour>
      <point x="535" y="0" type="move" name="bottomright"/>
    </contour>
  </outline>
</glyph>
<glyph name="uni044D" format="1">
  <advance width="487"/>
  <unicode hex="044D"/>
  <outline>
    <contour>
      <point x="129" y="554"/>
      <point x="64" y="530"/>
      <point x="12" y="488" type="curve"/>
      <point x="94" y="382" type="line"/>
      <point x="129" y="405"/>
      <point x="159" y="414"/>
      <point x="194" y="414" type="curve" smooth="yes"/>
      <point x="240" y="414"/>
      <point x="273" y="388"/>
      <point x="272" y="298" type="curve"/>
      <point x="273" y="245" type="line"/>
      <point x="273" y="147"/>
      <point x="230" y="120"/>
      <point x="180" y="120" type="curve" smooth="yes"/>
      <point x="147" y="120"/>
      <point x="120" y="128"/>
      <point x="82" y="151" type="curve"/>
      <point x="0" y="41" type="line"/>
      <point x="54" y="2"/>
      <point x="112" y="-20"/>
      <point x="189" y="-20" type="curve" smooth="yes"/>
      <point x="370" y="-20"/>
      <point x="470" y="96"/>
      <point x="470" y="273" type="curve" smooth="yes"/>
      <point x="470" y="460"/>
      <point x="367" y="554"/>
      <point x="211" y="554" type="curve" smooth="yes"/>
    </contour>
    <contour>
      <point x="97" y="323" type="line"/>
      <point x="97" y="219" type="line"/>
      <point x="287" y="219" type="line"/>
      <point x="286" y="323" type="line"/>
    </contour>
    <contour>
      <point x="227" y="534" type="move" name="top"/>
    </contour>
    <contour>
      <point x="244" y="0" type="move" name="bottom"/>
    </contour>
  </outline>
</glyph>
<glyph name="uni0475" format="1">
  <advance width="548"/>
  <unicode hex="0475"/>
  <outline>
    <component base="uni2C71"/>
    <contour>
      <point x="267" y="534" type="move" name="top"/>
    </contour>
    <contour>
      <point x="274" y="0" type="move" name="bottom"/>
    </contour>
  </outline>
</glyph>
<glyph name="uni0490" format="1">
  <advance width="511"/>
  <unicode hex="0490"/>
  <outline>
    <contour>
      <point x="516" y="696" type="line"/>
      <point x="516" y="854" type="line"/>
      <point x="328" y="854" type="line"/>
      <point x="328" y="686" type="line"/>
    </contour>
    <component base="uni0413"/>
  </outline>
</glyph>
<glyph name="uni04A1" format="1">
  <advance width="668"/>
  <unicode hex="04A1"/>
  <outline>
    <contour>
      <point x="342" y="534" type="line"/>
      <point x="0" y="534" type="line"/>
      <point x="0" y="395" type="line"/>
      <point x="144" y="395" type="line"/>
    </contour>
    <component base="uni043A" xOffset="102"/>
  </outline>
</glyph>
<glyph name="uni04A4" format="1">
  <advance width="788"/>
  <unicode hex="04A4"/>
  <outline>
    <contour>
      <point x="614" y="542" type="line"/>
      <point x="772" y="542" type="line"/>
      <point x="793" y="696" type="line"/>
      <point x="408" y="696" type="line"/>
    </contour>
    <component base="H"/>
  </outline>
</glyph>
<glyph name="uni04A5" format="1">
  <advance width="683"/>
  <unicode hex="04A5"/>
  <outline>
    <contour>
      <point x="540" y="391" type="line"/>
      <point x="668" y="391" type="line"/>
      <point x="693" y="534" type="line"/>
      <point x="342" y="534" type="line"/>
    </contour>
    <component base="uni043D"/>
  </outline>
</glyph>
<glyph name="uni04B0" format="1">
  <advance width="620"/>
  <unicode hex="04B0"/>
  <outline>
    <contour>
      <point x="98" y="320" type="line"/>
      <point x="98" y="214" type="line"/>
      <point x="207" y="214" type="line"/>
      <point x="413" y="214" type="line"/>
      <point x="522" y="214" type="line"/>
      <point x="522" y="320" type="line"/>
    </contour>
    <component base="Y"/>
  </outline>
</glyph>
<glyph name="uni04B1" format="1">
  <advance width="526"/>
  <unicode hex="04B1"/>
  <outline>
    <contour>
      <point x="359" y="-10" type="line"/>
      <point x="451" y="-10" type="line"/>
      <point x="451" y="90" type="line"/>
      <point x="75" y="90" type="line"/>
      <point x="75" y="-10" type="line"/>
      <point x="167" y="-10" type="line"/>
    </contour>
    <component base="uni04AF"/>
  </outline>
</glyph>
<glyph name="uni04B4" format="1">
  <advance width="830"/>
  <unicode hex="04B4"/>
  <outline>
    <contour>
      <point x="5" y="696" type="line"/>
      <point x="5" y="546" type="line"/>
      <point x="174" y="546" type="line"/>
      <point x="380" y="546" type="line"/>
      <point x="469" y="546" type="line"/>
      <point x="490" y="696" type="line"/>
    </contour>
    <contour>
      <point x="740" y="696" type="line"/>
      <point x="534" y="696" type="line"/>
      <point x="534" y="158" type="line"/>
      <point x="380" y="158" type="line"/>
      <point x="380" y="696" type="line"/>
      <point x="174" y="696" type="line"/>
      <point x="174" y="0" type="line"/>
      <point x="740" y="0" type="line"/>
    </contour>
    <component base="descStraightcy.case" xOffset="578"/>
    <contour>
      <point x="415" y="696" type="move" name="top"/>
    </contour>
    <contour>
      <point x="415" y="-215" type="move" name="bottom"/>
    </contour>
    <contour>
      <point x="750" y="0" type="move" name="bottomright"/>
    </contour>
  </outline>
</glyph>
<glyph name="uni04B5" format="1">
  <advance width="722"/>
  <unicode hex="04B5"/>
  <outline>
    <contour>
      <point x="0" y="534" type="line"/>
      <point x="0" y="395" type="line"/>
      <point x="144" y="395" type="line"/>
      <point x="342" y="395" type="line"/>
      <point x="410" y="395" type="line"/>
      <point x="425" y="534" type="line"/>
    </contour>
    <contour>
      <point x="454" y="142" type="line"/>
      <point x="342" y="142" type="line"/>
      <point x="342" y="534" type="line"/>
      <point x="144" y="534" type="line"/>
      <point x="144" y="0" type="line"/>
      <point x="652" y="0" type="line"/>
      <point x="652" y="534" type="line"/>
      <point x="454" y="534" type="line"/>
    </contour>
    <component base="descStraightcy" xOffset="490"/>
    <contour>
      <point x="359" y="534" type="move" name="top"/>
    </contour>
    <contour>
      <point x="359" y="-215" type="move" name="bottom"/>
    </contour>
    <contour>
      <point x="642" y="0" type="move" name="bottomright"/>
    </contour>
  </outline>
</glyph>
<glyph name="uni04B9" format="1">
  <advance width="550"/>
  <unicode hex="04B9"/>
  <outline>
    <contour>
      <point x="237" y="402" type="line"/>
      <point x="237" y="82" type="line"/>
      <point x="284" y="82" type="line"/>
      <point x="284" y="402" type="line"/>
    </contour>
    <contour>
      <point x="321" y="311" type="line"/>
      <point x="305" y="295"/>
      <point x="275" y="281"/>
      <point x="246" y="281" type="curve" smooth="yes"/>
      <point x="220" y="281"/>
      <point x="208" y="291"/>
      <point x="208" y="333" type="curve" smooth="yes"/>
      <point x="208" y="534" type="line"/>
      <point x="15" y="534" type="line"/>
      <point x="15" y="310" type="line" smooth="yes"/>
      <point x="15" y="208"/>
      <point x="61" y="140"/>
      <point x="167" y="140" type="curve" smooth="yes"/>
      <point x="229" y="140"/>
      <point x="283" y="162"/>
      <point x="321" y="194" type="curve"/>
    </contour>
    <contour>
      <point x="316" y="0" type="line"/>
      <point x="508" y="0" type="line"/>
      <point x="508" y="534" type="line"/>
      <point x="316" y="534" type="line"/>
    </contour>
    <contour>
      <point x="262" y="534" type="move" name="top"/>
    </contour>
    <contour>
      <point x="300" y="0" type="move" name="bottomleft"/>
    </contour>
    <contour>
      <point x="518" y="0" type="move" name="bottomright"/>
    </contour>
    <contour>
      <point x="275" y="0" type="move" name="bottom"/>
    </contour>
  </outline>
</glyph>
<glyph name="uni04E8" format="1">
  <advance width="690"/>
  <unicode hex="04E8"/>
  <outline>
    <contour>
      <point x="136" y="716"/>
      <point x="20" y="575"/>
      <point x="20" y="349" type="curve" smooth="yes"/>
      <point x="20" y="118"/>
      <point x="136" y="-20"/>
      <point x="345" y="-20" type="curve" smooth="yes"/>
      <point x="554" y="-20"/>
      <point x="670" y="123"/>
      <point x="670" y="349" type="curve" smooth="yes"/>
      <point x="670" y="580"/>
      <point x="554" y="716"/>
      <point x="345" y="716" type="curve" smooth="yes"/>
    </contour>
    <contour>
      <point x="423" y="570"/>
      <point x="461" y="510"/>
      <point x="461" y="349" type="curve" smooth="yes"/>
      <point x="461" y="188"/>
      <point x="425" y="126"/>
      <point x="345" y="126" type="curve" smooth="yes"/>
      <point x="267" y="126"/>
      <point x="229" y="188"/>
      <point x="229" y="349" type="curve" smooth="yes"/>
      <point x="229" y="510"/>
      <point x="267" y="570"/>
      <point x="345" y="570" type="curve" smooth="yes"/>
    </contour>
    <contour>
      <point x="131" y="404" type="line"/>
      <point x="130" y="298" type="line"/>
      <point x="559" y="298" type="line"/>
      <point x="559" y="404" type="line"/>
    </contour>
    <contour>
      <point x="345" y="696" type="move" name="top"/>
    </contour>
    <contour>
      <point x="345" y="0" type="move" name="bottom"/>
    </contour>
  </outline>
</glyph>
<glyph name="uni04E9" format="1">
  <advance width="584"/>
  <unicode hex="04E9"/>
  <outline>
    <contour>
      <point x="197" y="321" type="line"/>
      <point x="196" y="221" type="line"/>
      <point x="390" y="221" type="line"/>
      <point x="389" y="321" type="line"/>
    </contour>
    <contour>
      <point x="122" y="554"/>
      <point x="17" y="442"/>
      <point x="17" y="268" type="curve" smooth="yes"/>
      <point x="17" y="82"/>
      <point x="124" y="-20"/>
      <point x="292" y="-20" type="curve" smooth="yes"/>
      <point x="462" y="-20"/>
      <point x="567" y="92"/>
      <point x="567" y="266" type="curve" smooth="yes"/>
      <point x="567" y="452"/>
      <point x="460" y="554"/>
      <point x="292" y="554" type="curve" smooth="yes"/>
    </contour>
    <contour>
      <point x="348" y="415"/>
      <point x="370" y="374"/>
      <point x="370" y="266" type="curve" smooth="yes"/>
      <point x="370" y="163"/>
      <point x="348" y="119"/>
      <point x="292" y="119" type="curve" smooth="yes"/>
      <point x="236" y="119"/>
      <point x="214" y="160"/>
      <point x="214" y="268" type="curve" smooth="yes"/>
      <point x="214" y="371"/>
      <point x="236" y="415"/>
      <point x="292" y="415" type="curve" smooth="yes"/>
    </contour>
    <contour>
      <point x="292" y="534" type="move" name="top"/>
    </contour>
    <contour>
      <point x="293" y="0" type="move" name="bottom"/>
    </contour>
  </outline>
</glyph>
<glyph name="uni04FB" format="1">
  <advance width="446"/>
  <unicode hex="04FB"/>
  <outline>
    <contour>
      <point x="72" y="0" type="line"/>
      <point x="335" y="0" type="line"/>
      <point x="335" y="142" type="line"/>
      <point x="72" y="142" type="line"/>
    </contour>
    <component base="uni0493"/>
    <component base="hookHELPER" xOffset="-67"/>
    <contour>
      <point x="253" y="534" type="move" name="top"/>
    </contour>
    <contour>
      <point x="223" y="-215" type="move" name="bottom"/>
    </contour>
  </outline>
</glyph>
<glyph name="uni0504" format="1">
  <advance width="742"/>
  <unicode hex="0504"/>
  <outline>
    <contour>
      <point x="10" y="696" type="line"/>
      <point x="10" y="555" type="line"/>
      <point x="140" y="555" type="line" smooth="yes"/>
      <point x="201" y="555"/>
      <point x="234" y="530"/>
      <point x="234" y="475" type="curve" smooth="yes"/>
      <point x="234" y="414"/>
      <point x="206" y="386"/>
      <point x="150" y="386" type="curve" smooth="yes"/>
      <point x="50" y="386" type="line"/>
      <point x="50" y="248" type="line"/>
      <point x="248" y="248" type="line"/>
      <point x="384" y="311"/>
      <point x="444" y="365"/>
      <point x="444" y="475" type="curve" smooth="yes"/>
      <point x="444" y="628"/>
      <point x="344" y="696"/>
      <point x="145" y="696" type="curve" smooth="yes"/>
    </contour>
    <contour>
      <point x="517" y="380" type="line"/>
      <point x="522" y="340"/>
      <point x="524" y="298"/>
      <point x="524" y="259" type="curve" smooth="yes"/>
      <point x="524" y="158"/>
      <point x="496" y="122"/>
      <point x="454" y="122" type="curve" smooth="yes"/>
      <point x="429" y="122"/>
      <point x="413" y="134"/>
      <point x="393" y="167" type="curve" smooth="yes"/>
      <point x="313" y="300" type="line"/>
      <point x="127" y="262" type="line"/>
      <point x="198" y="130" type="line" smooth="yes"/>
      <point x="249" y="35"/>
      <point x="316" y="-20"/>
      <point x="457" y="-20" type="curve" smooth="yes"/>
      <point x="603" y="-20"/>
      <point x="722" y="64"/>
      <point x="722" y="244" type="curve" smooth="yes"/>
      <point x="722" y="293"/>
      <point x="719" y="339"/>
      <point x="714" y="380" type="curve"/>
    </contour>
    <contour>
      <point x="366" y="696" type="move" name="top"/>
    </contour>
    <contour>
      <point x="366" y="0" type="move" name="bottom"/>
    </contour>
  </outline>
</glyph>
<glyph name="uni0505" format="1">
  <advance width="678"/>
  <unicode hex="0505"/>
  <outline>
    <contour>
      <point x="519" y="-20"/>
      <point x="658" y="54"/>
      <point x="658" y="244" type="curve" smooth="yes"/>
      <point x="658" y="292"/>
      <point x="655" y="337"/>
      <point x="651" y="379" type="curve"/>
      <point x="454" y="379" type="line"/>
      <point x="458" y="338"/>
      <point x="460" y="297"/>
      <point x="460" y="259" type="curve" smooth="yes"/>
      <point x="460" y="158"/>
      <point x="432" y="122"/>
      <point x="396" y="122" type="curve" smooth="yes"/>
      <point x="370" y="122"/>
      <point x="356" y="135"/>
      <point x="335" y="174" type="curve" smooth="yes"/>
      <point x="310" y="222" type="line"/>
      <point x="133" y="190" type="line"/>
      <point x="154" y="145" type="line" smooth="yes"/>
      <point x="211" y="23"/>
      <point x="278" y="-20"/>
      <point x="402" y="-20" type="curve" smooth="yes"/>
    </contour>
    <contour>
      <point x="237" y="172" type="line"/>
      <point x="343" y="198"/>
      <point x="402" y="250"/>
      <point x="402" y="350" type="curve" smooth="yes"/>
      <point x="402" y="478"/>
      <point x="314" y="534"/>
      <point x="160" y="534" type="curve" smooth="yes"/>
      <point x="10" y="534" type="line"/>
      <point x="10" y="402" type="line"/>
      <point x="155" y="402" type="line" smooth="yes"/>
      <point x="190" y="402"/>
      <point x="210" y="391"/>
      <point x="210" y="353" type="curve" smooth="yes"/>
      <point x="210" y="313"/>
      <point x="191" y="298"/>
      <point x="153" y="298" type="curve" smooth="yes"/>
      <point x="54" y="298" type="line"/>
      <point x="54" y="172" type="line"/>
    </contour>
    <contour>
      <point x="334" y="534" type="move" name="top"/>
    </contour>
    <contour>
      <point x="334" y="0" type="move" name="bottom"/>
    </contour>
  </outline>
</glyph>
<glyph name="uni0506" format="1">
  <advance width="476"/>
  <unicode hex="0506"/>
  <outline>
    <contour>
      <point x="10" y="696" type="line"/>
      <point x="10" y="555" type="line"/>
      <point x="140" y="555" type="line" smooth="yes"/>
      <point x="201" y="555"/>
      <point x="234" y="530"/>
      <point x="234" y="475" type="curve" smooth="yes"/>
      <point x="234" y="414"/>
      <point x="206" y="386"/>
      <point x="150" y="386" type="curve" smooth="yes"/>
      <point x="50" y="386" type="line"/>
      <point x="50" y="248" type="line"/>
      <point x="248" y="248" type="line"/>
      <point x="384" y="311"/>
      <point x="444" y="365"/>
      <point x="444" y="475" type="curve" smooth="yes"/>
      <point x="444" y="628"/>
      <point x="344" y="696"/>
      <point x="145" y="696" type="curve" smooth="yes"/>
    </contour>
    <contour>
      <point x="127" y="262" type="line"/>
      <point x="263" y="0" type="line"/>
      <point x="491" y="0" type="line"/>
      <point x="313" y="300" type="line"/>
    </contour>
    <component base="descStraightcy.case" xOffset="249"/>
    <contour>
      <point x="241" y="696" type="move" name="top"/>
    </contour>
    <contour>
      <point x="241" y="-215" type="move" name="bottom"/>
    </contour>
  </outline>
</glyph>
<glyph name="uni0507" format="1">
  <advance width="446"/>
  <unicode hex="0507"/>
  <outline>
    <contour>
      <point x="217" y="172" type="line"/>
      <point x="343" y="198"/>
      <point x="402" y="250"/>
      <point x="402" y="350" type="curve" smooth="yes"/>
      <point x="402" y="478"/>
      <point x="314" y="534"/>
      <point x="160" y="534" type="curve" smooth="yes"/>
      <point x="10" y="534" type="line"/>
      <point x="10" y="402" type="line"/>
      <point x="155" y="402" type="line" smooth="yes"/>
      <point x="190" y="402"/>
      <point x="210" y="391"/>
      <point x="210" y="353" type="curve" smooth="yes"/>
      <point x="210" y="313"/>
      <point x="191" y="298"/>
      <point x="153" y="298" type="curve" smooth="yes"/>
      <point x="54" y="298" type="line"/>
      <point x="54" y="172" type="line"/>
    </contour>
    <contour>
      <point x="143" y="184" type="line"/>
      <point x="237" y="0" type="line"/>
      <point x="445" y="0" type="line"/>
      <point x="310" y="222" type="line"/>
    </contour>
    <component base="descStraightcy" xOffset="214"/>
    <contour>
      <point x="223" y="534" type="move" name="top"/>
    </contour>
    <contour>
      <point x="223" y="-215" type="move" name="bottom"/>
    </contour>
  </outline>
</glyph>
<glyph name="uni0514" format="1">
  <advance width="881"/>
  <unicode hex="0514"/>
  <outline>
    <contour>
      <point x="433" y="548" type="line"/>
      <point x="433" y="696" type="line"/>
      <point x="133" y="696" type="line"/>
      <point x="290" y="548" type="line"/>
    </contour>
    <contour>
      <point x="93" y="364" type="line" smooth="yes"/>
      <point x="74" y="208"/>
      <point x="66" y="150"/>
      <point x="-5" y="120" type="curve"/>
      <point x="43" y="-20" type="line"/>
      <point x="214" y="11"/>
      <point x="257" y="135"/>
      <point x="282" y="348" type="curve" smooth="yes"/>
      <point x="306" y="555" type="line"/>
      <point x="133" y="696" type="line"/>
    </contour>
    <component base="X" xOffset="275"/>
    <contour>
      <point x="432" y="696" type="move" name="top"/>
    </contour>
    <contour>
      <point x="432" y="0" type="move" name="bottom"/>
    </contour>
  </outline>
</glyph>
<glyph name="uni0515" format="1">
  <advance width="769"/>
  <unicode hex="0515"/>
  <outline>
    <contour>
      <point x="245" y="397" type="line"/>
      <point x="449" y="397" type="line"/>
      <point x="449" y="534" type="line"/>
      <point x="90" y="534" type="line"/>
    </contour>
    <contour>
      <point x="90" y="534" type="line"/>
      <point x="77" y="324" type="line" smooth="yes"/>
      <point x="67" y="167"/>
      <point x="59" y="157"/>
      <point x="0" y="127" type="curve"/>
      <point x="48" y="-13" type="line"/>
      <point x="219" y="20"/>
      <point x="237" y="102"/>
      <point x="256" y="317" type="curve" smooth="yes"/>
      <point x="263" y="397" type="line"/>
    </contour>
    <component base="x" xOffset="241"/>
    <contour>
      <point x="406" y="534" type="move" name="top"/>
    </contour>
    <contour>
      <point x="406" y="0" type="move" name="bottom"/>
    </contour>
  </outline>
</glyph>
<glyph name="uni051E" format="1">
  <advance width="644"/>
  <unicode hex="051E"/>
  <outline>
    <contour>
      <point x="605" y="420" type="line"/>
      <point x="644" y="505" type="line"/>
      <point x="321" y="652" type="line"/>
      <point x="282" y="567" type="line"/>
    </contour>
    <component base="uni041A"/>
  </outline>
</glyph>
<glyph name="uni052A" format="1">
  <advance width="1109"/>
  <unicode hex="052A"/>
  <outline>
    <contour>
      <point x="775" y="0" type="line"/>
      <point x="775" y="288" type="line"/>
      <point x="797" y="288" type="line"/>
      <point x="903" y="0" type="line"/>
      <point x="1124" y="0" type="line"/>
      <point x="957" y="387" type="line"/>
      <point x="1106" y="696" type="line"/>
      <point x="908" y="696" type="line"/>
      <point x="802" y="433" type="line"/>
      <point x="775" y="433" type="line"/>
      <point x="775" y="696" type="line"/>
      <point x="576" y="696" type="line"/>
      <point x="576" y="0" type="line"/>
    </contour>
    <contour>
      <point x="499" y="0" type="line"/>
      <point x="499" y="696" type="line"/>
      <point x="132" y="696" type="line"/>
      <point x="104" y="467" type="line" smooth="yes"/>
      <point x="80" y="271"/>
      <point x="57" y="198"/>
      <point x="24" y="154" type="curve"/>
      <point x="24" y="0" type="line"/>
    </contour>
    <contour>
      <point x="230" y="205"/>
      <point x="267" y="293"/>
      <point x="284" y="492" type="curve" smooth="yes"/>
      <point x="289" y="549" type="line"/>
      <point x="323" y="549" type="line"/>
      <point x="323" y="154" type="line"/>
      <point x="169" y="154" type="line"/>
    </contour>
    <contour>
      <point x="690" y="0" type="line"/>
      <point x="690" y="154" type="line"/>
      <point x="523" y="154" type="line"/>
      <point x="523" y="0" type="line"/>
    </contour>
    <contour>
      <point x="773" y="288" type="line"/>
      <point x="773" y="433" type="line"/>
      <point x="343" y="433" type="line"/>
      <point x="343" y="288" type="line"/>
    </contour>
    <component base="descStraightcy.case" xOffset="227" xScale="-1"/>
    <component base="descStraightcy.case" xOffset="340"/>
    <contour>
      <point x="540" y="696" type="move" name="top"/>
    </contour>
    <contour>
      <point x="540" y="-215" type="move" name="bottom"/>
    </contour>
  </outline>
</glyph>
<glyph name="uni052B" format="1">
  <advance width="961"/>
  <unicode hex="052B"/>
  <outline>
    <contour>
      <point x="690" y="0" type="line"/>
      <point x="690" y="221" type="line"/>
      <point x="701" y="221" type="line"/>
      <point x="773" y="0" type="line"/>
      <point x="971" y="0" type="line"/>
      <point x="863" y="286" type="line"/>
      <point x="962" y="534" type="line"/>
      <point x="784" y="534" type="line"/>
      <point x="706" y="327" type="line"/>
      <point x="690" y="327" type="line"/>
      <point x="690" y="534" type="line"/>
      <point x="512" y="534" type="line"/>
      <point x="512" y="0" type="line"/>
    </contour>
    <contour>
      <point x="444" y="0" type="line"/>
      <point x="444" y="534" type="line"/>
      <point x="104" y="534" type="line"/>
      <point x="89" y="363" type="line" smooth="yes"/>
      <point x="74" y="196"/>
      <point x="57" y="162"/>
      <point x="31" y="142" type="curve"/>
      <point x="155" y="135" type="line"/>
      <point x="213" y="158"/>
      <point x="243" y="220"/>
      <point x="258" y="379" type="curve" smooth="yes"/>
      <point x="261" y="410" type="line"/>
      <point x="275" y="410" type="line"/>
      <point x="275" y="142" type="line"/>
      <point x="29" y="142" type="line"/>
      <point x="34" y="0" type="line"/>
    </contour>
    <contour>
      <point x="659" y="219" type="line"/>
      <point x="659" y="329" type="line"/>
      <point x="363" y="329" type="line"/>
      <point x="363" y="219" type="line"/>
    </contour>
    <contour>
      <point x="615" y="0" type="line"/>
      <point x="615" y="142" type="line"/>
      <point x="462" y="142" type="line"/>
      <point x="462" y="0" type="line"/>
    </contour>
    <component base="descStraightcy" xOffset="256"/>
    <component base="descStraightcy" xOffset="242" xScale="-1"/>
    <contour>
      <point x="481" y="534" type="move" name="top"/>
    </contour>
    <contour>
      <point x="481" y="-215" type="move" name="bottom"/>
    </contour>
  </outline>
</glyph>
<glyph name="uni0E3F" format="1">
  <advance width="605"/>
  <unicode hex="0E3F"/>
  <outline>
    <contour>
      <point x="224" y="16" type="line"/>
      <point x="224" y="-165" type="line"/>
      <point x="359" y="-165" type="line"/>
      <point x="359" y="16" type="line"/>
    </contour>
    <contour>
      <point x="224" y="834" type="line"/>
      <point x="224" y="677" type="line"/>
      <point x="359" y="662" type="line"/>
      <point x="359" y="834" type="line"/>
    </contour>
    <contour>
      <point x="43" y="679" type="line"/>
      <point x="43" y="0" type="line"/>
      <point x="279" y="0" type="line" smooth="yes"/>
      <point x="457" y="0"/>
      <point x="590" y="40"/>
      <point x="590" y="202" type="curve" smooth="yes"/>
      <point x="590" y="308"/>
      <point x="513" y="344"/>
      <point x="439" y="360" type="curve"/>
      <point x="500" y="375"/>
      <point x="562" y="415"/>
      <point x="562" y="505" type="curve" smooth="yes"/>
      <point x="562" y="636"/>
      <point x="442" y="679"/>
      <point x="253" y="679" type="curve" smooth="yes"/>
    </contour>
    <contour>
      <point x="336" y="542"/>
      <point x="359" y="524"/>
      <point x="359" y="484" type="curve"/>
      <point x="359" y="437"/>
      <point x="338" y="416"/>
      <point x="276" y="416" type="curve" smooth="yes"/>
      <point x="227" y="416" type="line"/>
      <point x="227" y="290" type="line"/>
      <point x="289" y="290" type="line" smooth="yes"/>
      <point x="351" y="290"/>
      <point x="384" y="268"/>
      <point x="384" y="215" type="curve" smooth="yes"/>
      <point x="384" y="153"/>
      <point x="342" y="141"/>
      <point x="281" y="141" type="curve" smooth="yes"/>
      <point x="243" y="141" type="line"/>
      <point x="243" y="542" type="line"/>
      <point x="272" y="542" type="line" smooth="yes"/>
    </contour>
  </outline>
</glyph>
<glyph name="uni1D4A" format="1">
  <advance width="330"/>
  <unicode hex="1D4A"/>
  <outline>
    <contour>
      <point x="118" y="673"/>
      <point x="84" y="661"/>
      <point x="55" y="640" type="curve"/>
      <point x="83" y="592" type="line"/>
      <point x="105" y="604"/>
      <point x="128" y="612"/>
      <point x="161" y="612" type="curve" smooth="yes"/>
      <point x="197" y="612"/>
      <point x="222" y="596"/>
      <point x="221" y="545" type="curve"/>
      <point x="221" y="521" type="line"/>
      <point x="221" y="475"/>
      <point x="203" y="453"/>
      <point x="162" y="453" type="curve" smooth="yes"/>
      <point x="122" y="453"/>
      <point x="106" y="471"/>
      <point x="106" y="503" type="curve" smooth="yes"/>
      <point x="106" y="504"/>
      <point x="106" y="507"/>
      <point x="106" y="509" type="curve"/>
      <point x="235" y="509" type="line"/>
      <point x="234" y="561" type="line"/>
      <point x="32" y="561" type="line"/>
      <point x="31" y="554"/>
      <point x="30" y="543"/>
      <point x="30" y="529" type="curve" smooth="yes"/>
      <point x="30" y="435"/>
      <point x="83" y="391"/>
      <point x="162" y="391" type="curve" smooth="yes"/>
      <point x="248" y="391"/>
      <point x="300" y="443"/>
      <point x="300" y="533" type="curve" smooth="yes"/>
      <point x="300" y="624"/>
      <point x="249" y="673"/>
      <point x="163" y="673" type="curve" smooth="yes"/>
    </contour>
  </outline>
</glyph>
<glyph name="uni1DBF" format="1">
  <advance width="333"/>
  <unicode hex="1DBF"/>
  <outline>
    <contour>
      <point x="72" y="779"/>
      <point x="30" y="710"/>
      <point x="30" y="583" type="curve" smooth="yes"/>
      <point x="30" y="464"/>
      <point x="67" y="391"/>
      <point x="164" y="391" type="curve" smooth="yes"/>
      <point x="268" y="391"/>
      <point x="303" y="466"/>
      <point x="303" y="585" type="curve" smooth="yes"/>
      <point x="303" y="697"/>
      <point x="270" y="779"/>
      <point x="168" y="779" type="curve" smooth="yes"/>
    </contour>
    <contour>
      <point x="211" y="716"/>
      <point x="221" y="684"/>
      <point x="221" y="585" type="curve" smooth="yes"/>
      <point x="221" y="495"/>
      <point x="209" y="454"/>
      <point x="164" y="454" type="curve" smooth="yes"/>
      <point x="125" y="454"/>
      <point x="110" y="495"/>
      <point x="111" y="583" type="curve" smooth="yes"/>
      <point x="112" y="683"/>
      <point x="123" y="716"/>
      <point x="168" y="716" type="curve" smooth="yes"/>
    </contour>
    <contour>
      <point x="228" y="612" type="line"/>
      <point x="103" y="612" type="line"/>
      <point x="103" y="558" type="line"/>
      <point x="229" y="558" type="line"/>
    </contour>
  </outline>
</glyph>
<glyph name="uni1DC5" format="1">
  <advance width="496"/>
  <unicode hex="1DC5"/>
  <outline>
    <contour>
      <point x="268" y="712" type="line"/>
      <point x="129" y="842" type="line"/>
      <point x="30" y="733" type="line"/>
      <point x="201" y="593" type="line"/>
    </contour>
    <contour>
      <point x="466" y="593" type="line"/>
      <point x="466" y="727" type="line"/>
      <point x="189" y="727" type="line"/>
      <point x="201" y="593" type="line"/>
    </contour>
  </outline>
</glyph>
<glyph name="uni1DC6" format="1">
  <advance width="496"/>
  <unicode hex="1DC6"/>
  <outline>
    <component base="uni1DC7" xOffset="496" xScale="-1"/>
    <contour>
      <point x="225" y="792" type="move" name="top"/>
    </contour>
    <contour>
      <point x="223" y="534" type="move" name="_top"/>
    </contour>
  </outline>
</glyph>
<glyph name="uni1DC7" format="1">
  <advance width="496"/>
  <unicode hex="1DC7"/>
  <outline>
    <contour>
      <point x="266" y="658" type="line"/>
      <point x="201" y="792" type="line"/>
      <point x="30" y="652" type="line"/>
      <point x="95" y="564" type="line"/>
    </contour>
    <contour>
      <point x="466" y="658" type="line"/>
      <point x="466" y="792" type="line"/>
      <point x="201" y="792" type="line"/>
      <point x="189" y="658" type="line"/>
    </contour>
    <contour>
      <point x="250" y="792" type="move" name="top"/>
    </contour>
    <contour>
      <point x="248" y="534" type="move" name="_top"/>
    </contour>
  </outline>
</glyph>
<glyph name="uni1FC1" format="1">
  <advance width="495"/>
  <unicode hex="1FC1"/>
  <outline>
    <component base="dieresistilde" xOffset="2"/>
    <contour>
      <point x="248" y="534" type="move" name="_top"/>
    </contour>
  </outline>
</glyph>
<glyph name="uni1FCE" format="1">
  <advance width="458"/>
  <unicode hex="1FCE"/>
  <outline>
    <contour>
      <point x="224" y="594" type="line"/>
      <point x="332" y="573" type="line"/>
      <point x="428" y="816" type="line"/>
      <point x="269" y="855" type="line"/>
    </contour>
    <component base="uni1FBF" xOffset="6"/>
    <contour>
      <point x="202" y="534" type="move" name="_top"/>
    </contour>
  </outline>
</glyph>
<glyph name="uni1FDE" format="1">
  <advance width="468"/>
  <unicode hex="1FDE"/>
  <outline>
    <contour>
      <point x="234" y="594" type="line"/>
      <point x="342" y="573" type="line"/>
      <point x="438" y="816" type="line"/>
      <point x="279" y="855" type="line"/>
    </contour>
    <component base="uni1FFE" xOffset="6"/>
    <contour>
      <point x="229" y="534" type="move" name="_top"/>
    </contour>
  </outline>
</glyph>
<glyph name="uni1FDF" format="1">
  <advance width="462"/>
  <unicode hex="1FDF"/>
  <outline>
    <contour>
      <point x="275" y="644" type="line"/>
      <point x="307" y="661"/>
      <point x="323" y="685"/>
      <point x="323" y="719" type="curve" smooth="yes"/>
      <point x="323" y="768"/>
      <point x="285" y="810"/>
      <point x="231" y="810" type="curve" smooth="yes"/>
      <point x="177" y="810"/>
      <point x="139" y="771"/>
      <point x="139" y="719" type="curve" smooth="yes"/>
      <point x="139" y="688"/>
      <point x="149" y="666"/>
      <point x="169" y="631" type="curve" smooth="yes"/>
      <point x="196" y="583" type="line"/>
      <point x="283" y="583" type="line"/>
    </contour>
    <component base="uni1FC0" yOffset="197"/>
    <contour>
      <point x="447" y="981" type="move" name="_topleft"/>
    </contour>
    <contour>
      <point x="233" y="1000" type="move" name="top"/>
    </contour>
    <contour>
      <point x="231" y="534" type="move" name="_top"/>
    </contour>
  </outline>
</glyph>
<glyph name="uni1FEF" format="1">
  <advance width="287"/>
  <unicode hex="1FEF"/>
  <outline>
    <contour>
      <point x="30" y="829" type="line"/>
      <point x="131" y="582" type="line"/>
      <point x="257" y="603" type="line"/>
      <point x="219" y="868" type="line"/>
    </contour>
    <contour>
      <point x="194" y="534" type="move" name="_top"/>
    </contour>
  </outline>
</glyph>
<glyph name="colonmonetary" format="1">
  <advance width="567"/>
  <unicode hex="20A1"/>
  <outline>
    <contour>
      <point x="218" y="-165" type="line"/>
      <point x="278" y="-165" type="line"/>
      <point x="384" y="834" type="line"/>
      <point x="324" y="834" type="line"/>
    </contour>
    <contour>
      <point x="307" y="-165" type="line"/>
      <point x="367" y="-165" type="line"/>
      <point x="473" y="834" type="line"/>
      <point x="413" y="834" type="line"/>
    </contour>
    <contour>
      <point x="153" y="696"/>
      <point x="20" y="566"/>
      <point x="20" y="340" type="curve" smooth="yes"/>
      <point x="21" y="106"/>
      <point x="147" y="-19"/>
      <point x="345" y="-19" type="curve" smooth="yes"/>
      <point x="439" y="-19"/>
      <point x="518" y="25"/>
      <point x="567" y="75" type="curve"/>
      <point x="480" y="175" type="line"/>
      <point x="439" y="143"/>
      <point x="403" y="121"/>
      <point x="355" y="121" type="curve" smooth="yes"/>
      <point x="255" y="121"/>
      <point x="208" y="187"/>
      <point x="208" y="340" type="curve" smooth="yes"/>
      <point x="208" y="493"/>
      <point x="255" y="562"/>
      <point x="352" y="562" type="curve" smooth="yes"/>
      <point x="397" y="562"/>
      <point x="433" y="544"/>
      <point x="468" y="517" type="curve"/>
      <point x="560" y="616" type="line"/>
      <point x="502" y="666"/>
      <point x="432" y="696"/>
      <point x="342" y="696" type="curve" smooth="yes"/>
    </contour>
  </outline>
</glyph>
<glyph name="uni20A6" format="1">
  <advance width="651"/>
  <unicode hex="20A6"/>
  <outline>
    <contour>
      <point x="10" y="325" type="line"/>
      <point x="10" y="244" type="line"/>
      <point x="641" y="244" type="line"/>
      <point x="641" y="325" type="line"/>
    </contour>
    <contour>
      <point x="10" y="442" type="line"/>
      <point x="10" y="361" type="line"/>
      <point x="641" y="361" type="line"/>
      <point x="641" y="442" type="line"/>
    </contour>
    <contour>
      <point x="436" y="680" type="line"/>
      <point x="436" y="459" type="line" smooth="yes"/>
      <point x="436" y="337"/>
      <point x="447" y="259"/>
      <point x="460" y="150" type="curve"/>
      <point x="287" y="680" type="line"/>
      <point x="52" y="680" type="line"/>
      <point x="52" y="0" type="line"/>
      <point x="214" y="0" type="line"/>
      <point x="214" y="210" type="line" smooth="yes"/>
      <point x="214" y="335"/>
      <point x="202" y="433"/>
      <point x="192" y="528" type="curve"/>
      <point x="360" y="0" type="line"/>
      <point x="600" y="0" type="line"/>
      <point x="600" y="680" type="line"/>
    </contour>
  </outline>
</glyph>
<glyph name="uni20A9" format="1">
  <advance width="863"/>
  <unicode hex="20A9"/>
  <outline>
    <contour>
      <point x="15" y="315" type="line"/>
      <point x="15" y="234" type="line"/>
      <point x="848" y="234" type="line"/>
      <point x="848" y="315" type="line"/>
    </contour>
    <contour>
      <point x="15" y="432" type="line"/>
      <point x="15" y="351" type="line"/>
      <point x="848" y="351" type="line"/>
      <point x="848" y="432" type="line"/>
    </contour>
    <contour>
      <point x="656" y="680" type="line"/>
      <point x="598" y="145" type="line"/>
      <point x="538" y="680" type="line"/>
      <point x="329" y="680" type="line"/>
      <point x="258" y="145" type="line"/>
      <point x="215" y="680" type="line"/>
      <point x="15" y="680" type="line"/>
      <point x="109" y="0" type="line"/>
      <point x="363" y="0" type="line"/>
      <point x="430" y="490" type="line"/>
      <point x="490" y="0" type="line"/>
      <point x="750" y="0" type="line"/>
      <point x="848" y="680" type="line"/>
    </contour>
  </outline>
</glyph>
<glyph name="uni20B4" format="1">
  <advance width="600"/>
  <unicode hex="20B4"/>
  <outline>
    <contour>
      <point x="198" y="696"/>
      <point x="118" y="663"/>
      <point x="57" y="603" type="curve"/>
      <point x="145" y="499" type="line"/>
      <point x="190" y="535"/>
      <point x="236" y="554"/>
      <point x="290" y="554" type="curve" smooth="yes"/>
      <point x="348" y="554"/>
      <point x="363" y="535"/>
      <point x="363" y="505" type="curve" smooth="yes"/>
      <point x="363" y="460"/>
      <point x="344" y="449"/>
      <point x="241" y="408" type="curve" smooth="yes"/>
      <point x="102" y="353"/>
      <point x="40" y="313"/>
      <point x="40" y="201" type="curve" smooth="yes"/>
      <point x="40" y="71"/>
      <point x="137" y="-20"/>
      <point x="315" y="-20" type="curve" smooth="yes"/>
      <point x="444" y="-20"/>
      <point x="531" y="29"/>
      <point x="587" y="82" type="curve"/>
      <point x="489" y="190" type="line"/>
      <point x="440" y="148"/>
      <point x="386" y="124"/>
      <point x="323" y="124" type="curve" smooth="yes"/>
      <point x="254" y="124"/>
      <point x="238" y="150"/>
      <point x="238" y="185" type="curve" smooth="yes"/>
      <point x="238" y="235"/>
      <point x="259" y="252"/>
      <point x="358" y="289" type="curve" smooth="yes"/>
      <point x="518" y="349"/>
      <point x="559" y="401"/>
      <point x="559" y="489" type="curve" smooth="yes"/>
      <point x="559" y="617"/>
      <point x="446" y="696"/>
      <point x="306" y="696" type="curve" smooth="yes"/>
    </contour>
    <contour>
      <point x="10" y="325" type="line"/>
      <point x="10" y="234" type="line"/>
      <point x="590" y="234" type="line"/>
      <point x="590" y="325" type="line"/>
    </contour>
    <contour>
      <point x="10" y="452" type="line"/>
      <point x="10" y="361" type="line"/>
      <point x="590" y="361" type="line"/>
      <point x="590" y="452" type="line"/>
    </contour>
  </outline>
</glyph>
<glyph name="uni20B9" format="1">
  <advance width="548"/>
  <unicode hex="20B9"/>
  <outline>
    <contour>
      <point x="276" y="232" type="line"/>
      <point x="412" y="275"/>
      <point x="472" y="339"/>
      <point x="472" y="434" type="curve" smooth="yes"/>
      <point x="472" y="504"/>
      <point x="441" y="560"/>
      <point x="384" y="585" type="curve"/>
      <point x="528" y="585" type="line"/>
      <point x="528" y="680" type="line"/>
      <point x="40" y="680" type="line"/>
      <point x="40" y="575" type="line"/>
      <point x="178" y="575" type="line" smooth="yes"/>
      <point x="239" y="575"/>
      <point x="272" y="548"/>
      <point x="272" y="458" type="curve" smooth="yes"/>
      <point x="272" y="359"/>
      <point x="244" y="337"/>
      <point x="178" y="337" type="curve" smooth="yes"/>
      <point x="40" y="337" type="line"/>
      <point x="40" y="232" type="line"/>
    </contour>
    <contour>
      <point x="519" y="0" type="line"/>
      <point x="341" y="274" type="line"/>
      <point x="165" y="236" type="line"/>
      <point x="301" y="0" type="line"/>
    </contour>
    <contour>
      <point x="528" y="414" type="line"/>
      <point x="528" y="509" type="line"/>
      <point x="40" y="509" type="line"/>
      <point x="40" y="414" type="line"/>
    </contour>
  </outline>
</glyph>
<glyph name="uni2116" format="1">
  <advance width="1139"/>
  <unicode hex="2116"/>
  <outline>
    <contour>
      <point x="751" y="696"/>
      <point x="664" y="612"/>
      <point x="664" y="479" type="curve" smooth="yes"/>
      <point x="664" y="335"/>
      <point x="753" y="260"/>
      <point x="890" y="260" type="curve"/>
      <point x="1029" y="260"/>
      <point x="1115" y="344"/>
      <point x="1115" y="477" type="curve" smooth="yes"/>
      <point x="1115" y="621"/>
      <point x="1026" y="696"/>
      <point x="889" y="696" type="curve"/>
    </contour>
    <contour>
      <point x="924" y="574"/>
      <point x="938" y="549"/>
      <point x="938" y="477" type="curve" smooth="yes"/>
      <point x="938" y="410"/>
      <point x="924" y="382"/>
      <point x="890" y="382" type="curve"/>
      <point x="855" y="382"/>
      <point x="841" y="407"/>
      <point x="841" y="479" type="curve" smooth="yes"/>
      <point x="841" y="546"/>
      <point x="855" y="574"/>
      <point x="889" y="574" type="curve"/>
    </contour>
    <component base="N"/>
    <component base="minus" xOffset="624" yOffset="-257"/>
  </outline>
</glyph>
<glyph name="notequal" format="1">
  <advance width="530"/>
  <unicode hex="2260"/>
  <outline>
    <contour>
      <point x="45" y="72" type="line"/>
      <point x="143" y="17" type="line"/>
      <point x="485" y="588" type="line"/>
      <point x="387" y="643" type="line"/>
    </contour>
    <component base="equal"/>
  </outline>
</glyph>
<glyph name="acute.loclPLK" format="1">
  <advance width="295"/>
  <outline>
    <contour>
      <point x="30" y="632" type="line"/>
      <point x="117" y="584" type="line"/>
      <point x="265" y="751" type="line"/>
      <point x="121" y="829" type="line"/>
    </contour>
    <contour>
      <point x="114" y="534" type="move" name="_top"/>
    </contour>
  </outline>
</glyph>
<glyph name="acute.sc.loclPLK" format="1">
  <advance width="295"/>
  <outline>
    <contour>
      <point x="30" y="679" type="line"/>
      <point x="117" y="631" type="line"/>
      <point x="265" y="798" type="line"/>
      <point x="121" y="876" type="line"/>
    </contour>
    <contour>
      <point x="109" y="571" type="move" name="_top"/>
    </contour>
  </outline>
</glyph>
<glyph name="acutecomb.case" format="1">
  <advance width="364"/>
  <outline>
    <contour>
      <point x="30" y="848" type="line"/>
      <point x="80" y="749" type="line"/>
      <point x="334" y="840" type="line"/>
      <point x="264" y="984" type="line"/>
    </contour>
    <contour>
      <point x="184" y="984" type="move" name="top"/>
    </contour>
    <contour>
      <point x="182" y="696" type="move" name="_top"/>
    </contour>
  </outline>
</glyph>
<glyph name="acutedbl" format="1">
  <advance width="304"/>
  <outline>
    <contour>
      <point x="30" y="658" type="line"/>
      <point x="103" y="593" type="line"/>
      <point x="274" y="742" type="line"/>
      <point x="170" y="844" type="line"/>
    </contour>
    <contour>
      <point x="25" y="534" type="move" name="_topright"/>
    </contour>
    <contour>
      <point x="102" y="534" type="move" name="_top"/>
    </contour>
  </outline>
</glyph>
<glyph name="breveacute" format="1">
  <advance width="447"/>
  <outline>
    <component base="uni0306.case" xOffset="1" yOffset="-143"/>
    <component base="acutedbl" xOffset="116" yOffset="192"/>
    <contour>
      <point x="215" y="534" type="move" name="_top"/>
    </contour>
  </outline>
</glyph>
<glyph name="brevehookabove.case" format="1">
  <advance width="430"/>
  <outline>
    <component base="uni0306.case" yOffset="-11"/>
    <component base="hookabovecomb.case" xOffset="76" yOffset="162"/>
    <contour>
      <point x="214" y="696" type="move" name="_top"/>
    </contour>
  </outline>
</glyph>
<glyph name="circumflexhookabove" format="1">
  <advance width="559"/>
  <outline>
    <component base="uni0302.case" yOffset="-170"/>
    <component base="hookabovecomb" xOffset="247" yOffset="175"/>
    <contour>
      <point x="234" y="534" type="move" name="_top"/>
    </contour>
  </outline>
</glyph>
<glyph name="colonmonetary.tosf" format="1">
  <advance width="560"/>
  <outline>
    <contour>
      <point x="214" y="-165" type="line"/>
      <point x="274" y="-165" type="line"/>
      <point x="380" y="834" type="line"/>
      <point x="320" y="834" type="line"/>
    </contour>
    <contour>
      <point x="303" y="-165" type="line"/>
      <point x="363" y="-165" type="line"/>
      <point x="469" y="834" type="line"/>
      <point x="409" y="834" type="line"/>
    </contour>
    <contour>
      <point x="149" y="696"/>
      <point x="16" y="566"/>
      <point x="16" y="340" type="curve" smooth="yes"/>
      <point x="16" y="106"/>
      <point x="143" y="-19"/>
      <point x="341" y="-19" type="curve" smooth="yes"/>
      <point x="435" y="-19"/>
      <point x="514" y="25"/>
      <point x="563" y="75" type="curve"/>
      <point x="476" y="175" type="line"/>
      <point x="435" y="143"/>
      <point x="399" y="121"/>
      <point x="351" y="121" type="curve" smooth="yes"/>
      <point x="251" y="121"/>
      <point x="204" y="187"/>
      <point x="204" y="340" type="curve" smooth="yes"/>
      <point x="204" y="493"/>
      <point x="251" y="562"/>
      <point x="348" y="562" type="curve" smooth="yes"/>
      <point x="393" y="562"/>
      <point x="429" y="544"/>
      <point x="464" y="517" type="curve"/>
      <point x="556" y="616" type="line"/>
      <point x="498" y="666"/>
      <point x="428" y="696"/>
      <point x="338" y="696" type="curve" smooth="yes"/>
    </contour>
  </outline>
</glyph>
<glyph name="dieresisNARROWcomb" format="1">
  <advance width="455"/>
  <outline>
    <contour>
      <point x="278" y="818"/>
      <point x="235" y="777"/>
      <point x="235" y="726" type="curve" smooth="yes"/>
      <point x="235" y="674"/>
      <point x="278" y="633"/>
      <point x="330" y="633" type="curve" smooth="yes"/>
      <point x="384" y="633"/>
      <point x="425" y="674"/>
      <point x="425" y="726" type="curve" smooth="yes"/>
      <point x="425" y="777"/>
      <point x="384" y="818"/>
      <point x="330" y="818" type="curve" smooth="yes"/>
    </contour>
    <contour>
      <point x="73" y="818"/>
      <point x="30" y="777"/>
      <point x="30" y="726" type="curve" smooth="yes"/>
      <point x="30" y="674"/>
      <point x="73" y="633"/>
      <point x="125" y="633" type="curve" smooth="yes"/>
      <point x="179" y="633"/>
      <point x="220" y="674"/>
      <point x="220" y="726" type="curve" smooth="yes"/>
      <point x="220" y="777"/>
      <point x="179" y="818"/>
      <point x="125" y="818" type="curve" smooth="yes"/>
    </contour>
    <contour>
      <point x="230" y="818" type="move" name="top"/>
    </contour>
    <contour>
      <point x="228" y="534" type="move" name="_top"/>
    </contour>
  </outline>
</glyph>
<glyph name="dollar.tf" format="1">
  <advance width="560"/>
  <outline>
    <contour>
      <point x="223" y="9" type="line"/>
      <point x="223" y="-165" type="line"/>
      <point x="358" y="-165" type="line"/>
      <point x="358" y="5" type="line"/>
    </contour>
    <contour>
      <point x="223" y="854" type="line"/>
      <point x="223" y="694" type="line"/>
      <point x="358" y="699" type="line"/>
      <point x="358" y="854" type="line"/>
    </contour>
    <contour>
      <point x="142" y="716"/>
      <point x="33" y="637"/>
      <point x="33" y="506" type="curve" smooth="yes"/>
      <point x="33" y="405"/>
      <point x="79" y="335"/>
      <point x="237" y="285" type="curve" smooth="yes"/>
      <point x="322" y="258"/>
      <point x="343" y="240"/>
      <point x="343" y="198" type="curve" smooth="yes"/>
      <point x="343" y="160"/>
      <point x="317" y="134"/>
      <point x="261" y="134" type="curve" smooth="yes"/>
      <point x="200" y="134"/>
      <point x="147" y="158"/>
      <point x="100" y="200" type="curve"/>
      <point x="5" y="92" type="line"/>
      <point x="59" y="39"/>
      <point x="143" y="-9"/>
      <point x="268" y="-9" type="curve" smooth="yes"/>
      <point x="441" y="-9"/>
      <point x="544" y="82"/>
      <point x="544" y="215" type="curve" smooth="yes"/>
      <point x="544" y="338"/>
      <point x="484" y="398"/>
      <point x="349" y="443" type="curve" smooth="yes"/>
      <point x="256" y="474"/>
      <point x="232" y="484"/>
      <point x="232" y="522" type="curve" smooth="yes"/>
      <point x="232" y="555"/>
      <point x="255" y="574"/>
      <point x="302" y="574" type="curve" smooth="yes"/>
      <point x="354" y="574"/>
      <point x="396" y="555"/>
      <point x="439" y="520" type="curve"/>
      <point x="528" y="623" type="line"/>
      <point x="469" y="683"/>
      <point x="392" y="716"/>
      <point x="286" y="716" type="curve" smooth="yes"/>
    </contour>
  </outline>
</glyph>
<glyph name="f_f" format="1">
  <advance width="677"/>
  <outline>
    <contour>
      <point x="151" y="751"/>
      <point x="78" y="665"/>
      <point x="78" y="555" type="curve" smooth="yes"/>
      <point x="78" y="0" type="line"/>
      <point x="276" y="0" type="line"/>
      <point x="276" y="563" type="line" smooth="yes"/>
      <point x="276" y="605"/>
      <point x="289" y="618"/>
      <point x="327" y="618" type="curve" smooth="yes"/>
      <point x="357" y="618"/>
      <point x="380" y="614"/>
      <point x="410" y="606" type="curve"/>
      <point x="462" y="719" type="line"/>
      <point x="421" y="734"/>
      <point x="364" y="751"/>
      <point x="304" y="751" type="curve" smooth="yes"/>
    </contour>
    <contour>
      <point x="-2" y="534" type="line"/>
      <point x="-2" y="400" type="line"/>
      <point x="338" y="400" type="line"/>
      <point x="360" y="534" type="line"/>
    </contour>
    <component base="f" xOffset="308"/>
  </outline>
</glyph>
<glyph name="f_f_l" format="1">
  <advance width="955"/>
  <outline>
    <contour>
      <point x="151" y="751"/>
      <point x="78" y="665"/>
      <point x="78" y="555" type="curve" smooth="yes"/>
      <point x="78" y="0" type="line"/>
      <point x="276" y="0" type="line"/>
      <point x="276" y="563" type="line" smooth="yes"/>
      <point x="276" y="605"/>
      <point x="289" y="618"/>
      <point x="327" y="618" type="curve" smooth="yes"/>
      <point x="357" y="618"/>
      <point x="380" y="614"/>
      <point x="410" y="606" type="curve"/>
      <point x="462" y="719" type="line"/>
      <point x="421" y="734"/>
      <point x="364" y="751"/>
      <point x="304" y="751" type="curve" smooth="yes"/>
    </contour>
    <contour>
      <point x="-2" y="534" type="line"/>
      <point x="-2" y="400" type="line"/>
      <point x="338" y="400" type="line"/>
      <point x="360" y="534" type="line"/>
    </contour>
    <component base="f_l" xOffset="300"/>
  </outline>
</glyph>
<glyph name="f_j" format="1">
  <advance width="613"/>
  <outline>
    <contour>
      <point x="147" y="764"/>
      <point x="78" y="675"/>
      <point x="78" y="565" type="curve" smooth="yes"/>
      <point x="78" y="534" type="line"/>
      <point x="-2" y="534" type="line"/>
      <point x="-2" y="400" type="line"/>
      <point x="78" y="400" type="line"/>
      <point x="78" y="0" type="line"/>
      <point x="276" y="0" type="line"/>
      <point x="276" y="400" type="line"/>
      <point x="373" y="400" type="line"/>
      <point x="571" y="534" type="line"/>
      <point x="276" y="534" type="line"/>
      <point x="276" y="555" type="line" smooth="yes"/>
      <point x="276" y="607"/>
      <point x="294" y="622"/>
      <point x="354" y="622" type="curve" smooth="yes"/>
      <point x="393" y="622"/>
      <point x="434" y="610"/>
      <point x="465" y="598" type="curve"/>
      <point x="517" y="722" type="line"/>
      <point x="474" y="742"/>
      <point x="405" y="764"/>
      <point x="322" y="764" type="curve" smooth="yes"/>
    </contour>
    <contour>
      <point x="373" y="534" type="line"/>
      <point x="373" y="65" type="line" smooth="yes"/>
      <point x="373" y="-22"/>
      <point x="328" y="-52"/>
      <point x="261" y="-83" type="curve"/>
      <point x="329" y="-227" type="line"/>
      <point x="461" y="-184"/>
      <point x="571" y="-111"/>
      <point x="571" y="77" type="curve" smooth="yes"/>
      <point x="571" y="534" type="line"/>
    </contour>
  </outline>
</glyph>
<glyph name="f_t" format="1">
  <advance width="716"/>
  <outline>
    <contour>
      <point x="151" y="764"/>
      <point x="78" y="675"/>
      <point x="78" y="565" type="curve" smooth="yes"/>
      <point x="78" y="0" type="line"/>
      <point x="276" y="0" type="line"/>
      <point x="276" y="569" type="line" smooth="yes"/>
      <point x="276" y="615"/>
      <point x="289" y="628"/>
      <point x="330" y="628" type="curve" smooth="yes"/>
      <point x="355" y="628"/>
      <point x="377" y="625"/>
      <point x="402" y="616" type="curve"/>
      <point x="451" y="732" type="line"/>
      <point x="415" y="748"/>
      <point x="361" y="764"/>
      <point x="301" y="764" type="curve" smooth="yes"/>
    </contour>
    <contour>
      <point x="-2" y="534" type="line"/>
      <point x="-2" y="400" type="line"/>
      <point x="338" y="400" type="line"/>
      <point x="360" y="534" type="line"/>
    </contour>
    <contour>
      <point x="377" y="744" type="line"/>
      <point x="377" y="197" type="line" smooth="yes"/>
      <point x="377" y="56"/>
      <point x="437" y="-20"/>
      <point x="571" y="-20" type="curve" smooth="yes"/>
      <point x="621" y="-20"/>
      <point x="687" y="-5"/>
      <point x="731" y="26" type="curve"/>
      <point x="667" y="149" type="line"/>
      <point x="649" y="139"/>
      <point x="632" y="135"/>
      <point x="617" y="135" type="curve" smooth="yes"/>
      <point x="592" y="135"/>
      <point x="575" y="149"/>
      <point x="575" y="199" type="curve" smooth="yes"/>
      <point x="575" y="764" type="line"/>
    </contour>
    <contour>
      <point x="318" y="534" type="line"/>
      <point x="318" y="400" type="line"/>
      <point x="675" y="400" type="line"/>
      <point x="695" y="534" type="line"/>
    </contour>
  </outline>
</glyph>
<glyph name="gravecomb.case" format="1">
  <advance width="364"/>
  <outline>
    <contour>
      <point x="30" y="840" type="line"/>
      <point x="284" y="749" type="line"/>
      <point x="334" y="848" type="line"/>
      <point x="101" y="984" type="line"/>
    </contour>
    <contour>
      <point x="184" y="984" type="move" name="top"/>
    </contour>
    <contour>
      <point x="182" y="696" type="move" name="_top"/>
    </contour>
  </outline>
</glyph>
<glyph name="i.sc" format="1">
  <advance width="284"/>
  <outline>
    <contour>
      <point x="43" y="571" type="line"/>
      <point x="43" y="0" type="line"/>
      <point x="241" y="0" type="line"/>
      <point x="241" y="571" type="line"/>
    </contour>
    <contour>
      <point x="210" y="0" type="move" name="ogonek"/>
    </contour>
    <contour>
      <point x="142" y="0" type="move" name="bottom"/>
    </contour>
    <contour>
      <point x="142" y="571" type="move" name="top"/>
    </contour>
  </outline>
</glyph>
<glyph name="lambda.sc" format="1">
  <advance width="528"/>
  <outline>
    <contour>
      <point x="148" y="571" type="line"/>
      <point x="-25" y="0" type="line"/>
      <point x="181" y="0" type="line"/>
      <point x="263" y="436" type="line"/>
      <point x="345" y="0" type="line"/>
      <point x="553" y="0" type="line"/>
      <point x="381" y="571" type="line"/>
    </contour>
    <contour>
      <point x="265" y="571" type="move" name="top"/>
    </contour>
    <contour>
      <point x="252" y="0" type="move" name="bottom"/>
    </contour>
  </outline>
</glyph>
<glyph name="lozenge.tosf" format="1">
  <advance width="560"/>
  <outline>
    <contour>
      <point x="173" y="680" type="line"/>
      <point x="3" y="339" type="line"/>
      <point x="173" y="0" type="line"/>
      <point x="387" y="0" type="line"/>
      <point x="557" y="339" type="line"/>
      <point x="387" y="680" type="line"/>
    </contour>
    <contour>
      <point x="362" y="340" type="line"/>
      <point x="280" y="136" type="line"/>
      <point x="198" y="340" type="line"/>
      <point x="280" y="543" type="line"/>
    </contour>
  </outline>
</glyph>
<glyph name="lslash.sc" format="1">
  <advance width="520"/>
  <outline>
    <contour>
      <point x="88" y="297" type="line"/>
      <point x="0" y="243" type="line"/>
      <point x="57" y="149" type="line"/>
      <point x="431" y="381" type="line"/>
      <point x="373" y="474" type="line"/>
    </contour>
    <component base="l.sc" xOffset="45"/>
  </outline>
</glyph>
<glyph name="macronacutesingle.case" format="1">
  <advance width="385"/>
  <outline>
    <component base="uni0304" yOffset="114"/>
    <component base="acutecomb.case" xOffset="11" yOffset="168"/>
    <contour>
      <point x="193" y="696" type="move" name="_top"/>
    </contour>
  </outline>
</glyph>
<glyph name="macronacutesingle" format="1">
  <advance width="385"/>
  <outline>
    <component base="uni0304" yOffset="-40"/>
    <component base="acutecomb.case" xOffset="11" yOffset="14"/>
    <contour>
      <point x="193" y="534" type="move" name="_top"/>
    </contour>
  </outline>
</glyph>
<glyph name="product.tosf" format="1">
  <advance width="560"/>
  <outline>
    <contour>
      <point x="570" y="680" type="line"/>
      <point x="-10" y="680" type="line"/>
      <point x="-10" y="534" type="line"/>
      <point x="55" y="534" type="line"/>
      <point x="55" y="-227" type="line"/>
      <point x="240" y="-207" type="line"/>
      <point x="240" y="534" type="line"/>
      <point x="320" y="534" type="line"/>
      <point x="320" y="-227" type="line"/>
      <point x="505" y="-207" type="line"/>
      <point x="505" y="534" type="line"/>
      <point x="570" y="534" type="line"/>
    </contour>
  </outline>
</glyph>
<glyph name="ringacutecomb.case" format="1">
  <advance width="373"/>
  <outline>
    <component base="uni030A.case" xOffset="3" yOffset="-5"/>
    <component base="acutecomb.case" xOffset="5" yOffset="261"/>
    <contour>
      <point x="187" y="696" type="move" name="_top"/>
    </contour>
  </outline>
</glyph>
<glyph name="tildeacute" format="1">
  <advance width="462"/>
  <outline>
    <component base="tildecomb" yOffset="-30"/>
    <component base="acutecomb.case" xOffset="49" yOffset="34"/>
    <contour>
      <point x="231" y="534" type="move" name="_top"/>
    </contour>
  </outline>
</glyph>
<glyph name="tildecomb.case" format="1">
  <advance width="462"/>
  <outline>
    <component base="tildecomb" yOffset="126"/>
    <contour>
      <point x="233" y="929" type="move" name="top"/>
    </contour>
    <contour>
      <point x="231" y="696" type="move" name="_top"/>
    </contour>
  </outline>
</glyph>
<glyph name="tildemacroncomb.case" format="1">
  <advance width="462"/>
  <outline>
    <component base="tildecomb" yOffset="132"/>
    <component base="uni0304.case" xOffset="38" yOffset="188"/>
    <contour>
      <point x="231" y="696" type="move" name="_top"/>
    </contour>
  </outline>
</glyph>
<glyph name="tildemacroncomb" format="1">
  <advance width="462"/>
  <outline>
    <component base="tildecomb" yOffset="-30"/>
    <component base="uni0304" xOffset="38" yOffset="196"/>
    <contour>
      <point x="231" y="534" type="move" name="_top"/>
    </contour>
  </outline>
</glyph>
<glyph name="tonos.case" format="1">
  <advance width="247"/>
  <outline>
    <contour>
      <point x="43" y="453" type="line"/>
      <point x="165" y="453" type="line"/>
      <point x="217" y="696" type="line"/>
      <point x="30" y="710" type="line"/>
    </contour>
    <contour>
      <point x="245" y="696" type="move" name="_topleft"/>
    </contour>
  </outline>
</glyph>
<glyph name="tsehelpercy" format="1">
  <advance width="572"/>
  <outline>
    <contour>
      <point x="332" y="142" type="line"/>
      <point x="240" y="142" type="line"/>
      <point x="240" y="534" type="line"/>
      <point x="42" y="534" type="line"/>
      <point x="42" y="0" type="line"/>
      <point x="530" y="0" type="line"/>
      <point x="530" y="534" type="line"/>
      <point x="332" y="534" type="line"/>
    </contour>
    <contour>
      <point x="286" y="0" type="move" name="bottom"/>
    </contour>
    <contour>
      <point x="540" y="0" type="move" name="bottomright"/>
    </contour>
  </outline>
</glyph>
<glyph name="uni0199.sc" format="1">
  <advance width="601"/>
  <outline>
    <contour>
      <point x="618" y="0" type="line"/>
      <point x="443" y="321" type="line"/>
      <point x="485" y="406" type="line" smooth="yes"/>
      <point x="504" y="445"/>
      <point x="519" y="450"/>
      <point x="540" y="450" type="curve" smooth="yes"/>
      <point x="551" y="450"/>
      <point x="561" y="448"/>
      <point x="569" y="444" type="curve"/>
      <point x="621" y="559" type="line"/>
      <point x="591" y="575"/>
      <point x="560" y="586"/>
      <point x="511" y="587" type="curve" smooth="yes"/>
      <point x="422" y="589"/>
      <point x="372" y="552"/>
      <point x="320" y="451" type="curve" smooth="yes"/>
      <point x="245" y="305" type="line"/>
      <point x="396" y="0" type="line"/>
    </contour>
    <contour>
      <point x="240" y="0" type="line"/>
      <point x="240" y="571" type="line"/>
      <point x="43" y="571" type="line"/>
      <point x="43" y="0" type="line"/>
    </contour>
    <contour>
      <point x="301" y="571" type="move" name="top"/>
    </contour>
    <contour>
      <point x="301" y="0" type="move" name="bottom"/>
    </contour>
  </outline>
</glyph>
<glyph name="uni01B9.sc" format="1">
  <advance width="510"/>
  <outline>
    <contour>
      <point x="378" y="-19"/>
      <point x="450" y="13"/>
      <point x="510" y="65" type="curve"/>
      <point x="405" y="167" type="line"/>
      <point x="367" y="140"/>
      <point x="334" y="123"/>
      <point x="281" y="123" type="curve" smooth="yes"/>
      <point x="241" y="123"/>
      <point x="218" y="141"/>
      <point x="218" y="173" type="curve" smooth="yes"/>
      <point x="218" y="208"/>
      <point x="244" y="228"/>
      <point x="300" y="228" type="curve" smooth="yes"/>
      <point x="377" y="228" type="line"/>
      <point x="318" y="319" type="line"/>
      <point x="205" y="319" type="line" smooth="yes"/>
      <point x="85" y="319"/>
      <point x="15" y="255"/>
      <point x="15" y="163" type="curve" smooth="yes"/>
      <point x="15" y="47"/>
      <point x="121" y="-19"/>
      <point x="269" y="-19" type="curve" smooth="yes"/>
    </contour>
    <contour>
      <point x="377" y="343" type="line"/>
      <point x="267" y="429" type="line"/>
      <point x="467" y="429" type="line"/>
      <point x="467" y="571" type="line"/>
      <point x="39" y="571" type="line"/>
      <point x="39" y="427" type="line"/>
      <point x="233" y="284" type="line"/>
      <point x="377" y="228" type="line"/>
    </contour>
    <contour>
      <point x="255" y="571" type="move" name="top"/>
    </contour>
    <contour>
      <point x="255" y="0" type="move" name="bottom"/>
    </contour>
  </outline>
</glyph>
<glyph name="uni01F6.sc" format="1">
  <advance width="837"/>
  <outline>
    <contour>
      <point x="355" y="571" type="line"/>
      <point x="355" y="370" type="line"/>
      <point x="241" y="370" type="line"/>
      <point x="241" y="571" type="line"/>
      <point x="43" y="571" type="line"/>
      <point x="43" y="0" type="line"/>
      <point x="241" y="0" type="line"/>
      <point x="241" y="220" type="line"/>
      <point x="355" y="220" type="line"/>
      <point x="355" y="190" type="line"/>
      <point x="553" y="170" type="line"/>
      <point x="553" y="571" type="line"/>
    </contour>
    <contour>
      <point x="670" y="-15"/>
      <point x="812" y="41"/>
      <point x="812" y="235" type="curve" smooth="yes"/>
      <point x="812" y="311"/>
      <point x="809" y="355"/>
      <point x="801" y="431" type="curve"/>
      <point x="611" y="431" type="line"/>
      <point x="617" y="350"/>
      <point x="619" y="316"/>
      <point x="619" y="232" type="curve" smooth="yes"/>
      <point x="619" y="145"/>
      <point x="598" y="127"/>
      <point x="577" y="127" type="curve" smooth="yes"/>
      <point x="559" y="127"/>
      <point x="553" y="138"/>
      <point x="553" y="156" type="curve" smooth="yes"/>
      <point x="553" y="444" type="line"/>
      <point x="355" y="444" type="line"/>
      <point x="355" y="178" type="line" smooth="yes"/>
      <point x="355" y="43"/>
      <point x="444" y="-15"/>
      <point x="564" y="-15" type="curve" smooth="yes"/>
    </contour>
  </outline>
</glyph>
<glyph name="uni0220.sc" format="1">
  <advance width="597"/>
  <outline>
    <contour>
      <point x="322" y="591"/>
      <point x="271" y="564"/>
      <point x="217" y="501" type="curve"/>
      <point x="241" y="404" type="line"/>
      <point x="264" y="430"/>
      <point x="287" y="447"/>
      <point x="319" y="447" type="curve" smooth="yes"/>
      <point x="346" y="447"/>
      <point x="361" y="434"/>
      <point x="361" y="395" type="curve" smooth="yes"/>
      <point x="361" y="-215" type="line"/>
      <point x="559" y="-215" type="line"/>
      <point x="559" y="421" type="line" smooth="yes"/>
      <point x="559" y="533"/>
      <point x="501" y="591"/>
      <point x="401" y="591" type="curve" smooth="yes"/>
    </contour>
    <contour>
      <point x="43" y="571" type="line"/>
      <point x="43" y="0" type="line"/>
      <point x="241" y="0" type="line"/>
      <point x="241" y="472" type="line"/>
      <point x="216" y="571" type="line"/>
    </contour>
    <contour>
      <point x="299" y="571" type="move" name="top"/>
    </contour>
    <contour>
      <point x="299" y="-215" type="move" name="bottom"/>
    </contour>
  </outline>
</glyph>
<glyph name="uni024F.sc" format="1">
  <advance width="552"/>
  <outline>
    <contour>
      <point x="538" y="516" type="line"/>
      <point x="14" y="516" type="line"/>
      <point x="-8" y="516" type="line"/>
      <point x="-8" y="423" type="line"/>
      <point x="565" y="423" type="line"/>
      <point x="565" y="516" type="line"/>
    </contour>
    <contour>
      <point x="378" y="571" type="line"/>
      <point x="279" y="331" type="line"/>
      <point x="180" y="571" type="line"/>
      <point x="-15" y="571" type="line"/>
      <point x="177" y="208" type="line"/>
      <point x="177" y="0" type="line"/>
      <point x="374" y="0" type="line"/>
      <point x="374" y="209" type="line"/>
      <point x="567" y="571" type="line"/>
    </contour>
    <contour>
      <point x="278" y="571" type="move" name="top"/>
    </contour>
    <contour>
      <point x="278" y="0" type="move" name="bottom"/>
    </contour>
  </outline>
</glyph>
<glyph name="uni025B.sc" format="1">
  <advance width="490"/>
  <outline>
    <contour>
      <point x="370" y="-19"/>
      <point x="444" y="13"/>
      <point x="500" y="65" type="curve"/>
      <point x="395" y="167" type="line"/>
      <point x="357" y="137"/>
      <point x="327" y="123"/>
      <point x="284" y="123" type="curve" smooth="yes"/>
      <point x="244" y="123"/>
      <point x="218" y="141"/>
      <point x="218" y="173" type="curve" smooth="yes"/>
      <point x="218" y="205"/>
      <point x="244" y="225"/>
      <point x="300" y="225" type="curve" smooth="yes"/>
      <point x="346" y="225" type="line"/>
      <point x="366" y="362" type="line"/>
      <point x="296" y="362" type="line" smooth="yes"/>
      <point x="251" y="362"/>
      <point x="232" y="377"/>
      <point x="232" y="405" type="curve" smooth="yes"/>
      <point x="232" y="428"/>
      <point x="247" y="447"/>
      <point x="285" y="447" type="curve" smooth="yes"/>
      <point x="318" y="447"/>
      <point x="348" y="435"/>
      <point x="385" y="408" type="curve"/>
      <point x="479" y="505" type="line"/>
      <point x="422" y="558"/>
      <point x="349" y="587"/>
      <point x="254" y="587" type="curve" smooth="yes"/>
      <point x="125" y="587"/>
      <point x="32" y="522"/>
      <point x="32" y="426" type="curve" smooth="yes"/>
      <point x="32" y="358"/>
      <point x="72" y="313"/>
      <point x="165" y="297" type="curve"/>
      <point x="70" y="285"/>
      <point x="15" y="239"/>
      <point x="15" y="153" type="curve" smooth="yes"/>
      <point x="15" y="45"/>
      <point x="121" y="-19"/>
      <point x="261" y="-19" type="curve" smooth="yes"/>
    </contour>
    <contour>
      <point x="243" y="571" type="move" name="top"/>
    </contour>
    <contour>
      <point x="240" y="0" type="move" name="bottom"/>
    </contour>
  </outline>
</glyph>
<glyph name="uni0308.case" format="1">
  <advance width="495"/>
  <outline>
    <component base="uni0308" yOffset="126"/>
    <contour>
      <point x="252" y="944" type="move" name="top"/>
    </contour>
    <contour>
      <point x="250" y="696" type="move" name="_top"/>
    </contour>
  </outline>
</glyph>
<glyph name="uni030A.case" format="1">
  <advance width="368"/>
  <outline>
    <component base="uni030A" yOffset="126"/>
    <contour>
      <point x="186" y="1012" type="move" name="top"/>
    </contour>
    <contour>
      <point x="184" y="696" type="move" name="_top"/>
    </contour>
  </outline>
</glyph>
<glyph name="uni030F.case" format="1">
  <advance width="469"/>
  <outline>
    <component base="uni030F" yOffset="126"/>
    <contour>
      <point x="289" y="696" type="move" name="_top"/>
    </contour>
  </outline>
</glyph>
<glyph name="uni03D7.sc" format="1">
  <advance width="629"/>
  <outline>
    <contour>
      <point x="416" y="0" type="line"/>
      <point x="629" y="0" type="line"/>
      <point x="629" y="142" type="line"/>
      <point x="417" y="142" type="line"/>
    </contour>
    <component base="k.sc"/>
    <component base="hookHELPER" xOffset="227"/>
    <contour>
      <point x="284" y="-215" type="move" name="bottom"/>
    </contour>
  </outline>
</glyph>
<glyph name="uni043F.sc" format="1">
  <advance width="596"/>
  <outline>
    <contour>
      <point x="43" y="571" type="line"/>
      <point x="43" y="0" type="line"/>
      <point x="241" y="0" type="line"/>
      <point x="241" y="427" type="line"/>
      <point x="355" y="427" type="line"/>
      <point x="355" y="0" type="line"/>
      <point x="553" y="0" type="line"/>
      <point x="553" y="571" type="line"/>
    </contour>
    <contour>
      <point x="298" y="571" type="move" name="top"/>
    </contour>
    <contour>
      <point x="298" y="0" type="move" name="bottom"/>
    </contour>
    <contour>
      <point x="563" y="0" type="move" name="bottomright"/>
    </contour>
  </outline>
</glyph>
<glyph name="uni044A.sc" format="1">
  <advance width="651"/>
  <outline>
    <contour>
      <point x="342" y="571" type="line"/>
      <point x="5" y="571" type="line"/>
      <point x="5" y="427" type="line"/>
      <point x="146" y="427" type="line"/>
    </contour>
    <component base="uni044C.sc" xOffset="102"/>
  </outline>
</glyph>
<glyph name="uni044D.sc" format="1">
  <advance width="483"/>
  <outline>
    <contour>
      <point x="118" y="587"/>
      <point x="59" y="560"/>
      <point x="4" y="516" type="curve"/>
      <point x="90" y="416" type="line"/>
      <point x="124" y="437"/>
      <point x="150" y="451"/>
      <point x="187" y="451" type="curve" smooth="yes"/>
      <point x="240" y="451"/>
      <point x="262" y="412"/>
      <point x="268" y="338" type="curve"/>
      <point x="266" y="246" type="line"/>
      <point x="266" y="165"/>
      <point x="238" y="121"/>
      <point x="179" y="121" type="curve" smooth="yes"/>
      <point x="142" y="121"/>
      <point x="115" y="131"/>
      <point x="83" y="156" type="curve"/>
      <point x="0" y="53" type="line"/>
      <point x="49" y="7"/>
      <point x="106" y="-18"/>
      <point x="190" y="-18" type="curve" smooth="yes"/>
      <point x="357" y="-18"/>
      <point x="463" y="88"/>
      <point x="463" y="298" type="curve" smooth="yes"/>
      <point x="463" y="476"/>
      <point x="376" y="587"/>
      <point x="207" y="587" type="curve" smooth="yes"/>
    </contour>
    <contour>
      <point x="90" y="355" type="line"/>
      <point x="90" y="227" type="line"/>
      <point x="279" y="227" type="line"/>
      <point x="279" y="355" type="line"/>
    </contour>
    <contour>
      <point x="212" y="571" type="move" name="top"/>
    </contour>
    <contour>
      <point x="243" y="0" type="move" name="bottom"/>
    </contour>
  </outline>
</glyph>
<glyph name="uni0452.sc" format="1">
  <advance width="685"/>
  <outline>
    <contour>
      <point x="342" y="0" type="line"/>
      <point x="342" y="548" type="line"/>
      <point x="144" y="548" type="line"/>
      <point x="144" y="0" type="line"/>
    </contour>
    <contour>
      <point x="665" y="110" type="line"/>
      <point x="665" y="177" type="line" smooth="yes"/>
      <point x="665" y="302"/>
      <point x="595" y="387"/>
      <point x="464" y="387" type="curve" smooth="yes"/>
      <point x="412" y="387"/>
      <point x="372" y="373"/>
      <point x="335" y="346" type="curve"/>
      <point x="336" y="233" type="line"/>
      <point x="353" y="243"/>
      <point x="373" y="251"/>
      <point x="407" y="251" type="curve" smooth="yes"/>
      <point x="449" y="251"/>
      <point x="467" y="227"/>
      <point x="467" y="177" type="curve" smooth="yes"/>
      <point x="467" y="110" type="line"/>
    </contour>
    <contour>
      <point x="544" y="-134"/>
      <point x="665" y="-87"/>
      <point x="665" y="65" type="curve" smooth="yes"/>
      <point x="665" y="147" type="line"/>
      <point x="467" y="147" type="line"/>
      <point x="467" y="81" type="line"/>
      <point x="467" y="22"/>
      <point x="460" y="-3"/>
      <point x="386" y="-33" type="curve"/>
      <point x="438" y="-168" type="line"/>
    </contour>
    <contour>
      <point x="473" y="435" type="line"/>
      <point x="493" y="571" type="line"/>
      <point x="5" y="571" type="line"/>
      <point x="5" y="432" type="line"/>
    </contour>
    <contour>
      <point x="249" y="571" type="move" name="top"/>
    </contour>
    <contour>
      <point x="343" y="-215" type="move" name="bottom"/>
    </contour>
  </outline>
</glyph>
<glyph name="uni045B.sc" format="1">
  <advance width="653"/>
  <outline>
    <contour>
      <point x="5" y="571" type="line"/>
      <point x="5" y="432" type="line"/>
      <point x="463" y="435" type="line"/>
      <point x="483" y="571" type="line"/>
    </contour>
    <component base="uni04BB.sc" xOffset="98"/>
  </outline>
</glyph>
<glyph name="uni0463.sc" format="1">
  <advance width="612"/>
  <outline>
    <contour>
      <point x="106" y="0" type="line"/>
      <point x="363" y="0" type="line" smooth="yes"/>
      <point x="501" y="0"/>
      <point x="602" y="70"/>
      <point x="602" y="196" type="curve" smooth="yes"/>
      <point x="602" y="318"/>
      <point x="513" y="380"/>
      <point x="354" y="380" type="curve" smooth="yes"/>
      <point x="290" y="380" type="line"/>
      <point x="290" y="251" type="line"/>
      <point x="330" y="251" type="line" smooth="yes"/>
      <point x="384" y="251"/>
      <point x="398" y="222"/>
      <point x="398" y="195" type="curve" smooth="yes"/>
      <point x="398" y="168"/>
      <point x="381" y="136"/>
      <point x="334" y="136" type="curve" smooth="yes"/>
      <point x="303" y="136" type="line"/>
      <point x="303" y="571" type="line"/>
      <point x="106" y="571" type="line"/>
    </contour>
    <contour>
      <point x="413" y="432" type="line"/>
      <point x="413" y="521" type="line"/>
      <point x="106" y="521" type="line"/>
      <point x="5" y="521" type="line"/>
      <point x="5" y="432" type="line"/>
    </contour>
    <contour>
      <point x="309" y="571" type="move" name="top"/>
    </contour>
    <contour>
      <point x="309" y="0" type="move" name="bottom"/>
    </contour>
  </outline>
</glyph>
<glyph name="uni046B.sc" format="1">
  <advance width="732"/>
  <outline>
    <contour>
      <point x="166" y="0" type="line"/>
      <point x="246" y="209" type="line"/>
      <point x="275" y="209" type="line"/>
      <point x="275" y="0" type="line"/>
      <point x="459" y="0" type="line"/>
      <point x="459" y="209" type="line"/>
      <point x="486" y="209" type="line"/>
      <point x="562" y="0" type="line"/>
      <point x="747" y="0" type="line"/>
      <point x="600" y="324" type="line"/>
      <point x="133" y="324" type="line"/>
      <point x="-15" y="0" type="line"/>
    </contour>
    <contour>
      <point x="439" y="231" type="line"/>
      <point x="653" y="463" type="line"/>
      <point x="653" y="571" type="line"/>
      <point x="564" y="571" type="line"/>
      <point x="371" y="324" type="line"/>
      <point x="170" y="571" type="line"/>
      <point x="76" y="571" type="line"/>
      <point x="76" y="463" type="line"/>
      <point x="292" y="231" type="line"/>
    </contour>
    <contour>
      <point x="579" y="454" type="line"/>
      <point x="584" y="571" type="line"/>
      <point x="162" y="571" type="line"/>
      <point x="167" y="454" type="line"/>
    </contour>
    <contour>
      <point x="366" y="571" type="move" name="top"/>
    </contour>
    <contour>
      <point x="366" y="0" type="move" name="bottom"/>
    </contour>
  </outline>
</glyph>
<glyph name="uni0491.sc" format="1">
  <advance width="458"/>
  <outline>
    <contour>
      <point x="463" y="571" type="line"/>
      <point x="463" y="733" type="line"/>
      <point x="276" y="733" type="line"/>
      <point x="276" y="551" type="line"/>
    </contour>
    <component base="uni0433.sc"/>
  </outline>
</glyph>
<glyph name="uni0493.sc" format="1">
  <advance width="477"/>
  <outline>
    <contour>
      <point x="62" y="346" type="line"/>
      <point x="10" y="346" type="line"/>
      <point x="10" y="240" type="line"/>
      <point x="375" y="240" type="line"/>
      <point x="375" y="346" type="line"/>
    </contour>
    <component base="uni0433.sc" xOffset="19"/>
  </outline>
</glyph>
<glyph name="uni049F.sc" format="1">
  <advance width="609"/>
  <outline>
    <contour>
      <point x="298" y="422" type="line"/>
      <point x="298" y="524" type="line"/>
      <point x="47" y="524" type="line"/>
      <point x="-4" y="524" type="line"/>
      <point x="-4" y="422" type="line"/>
    </contour>
    <component base="uni043A.sc" xOffset="4"/>
  </outline>
</glyph>
<glyph name="uni04A5.sc" format="1">
  <advance width="699"/>
  <outline>
    <contour>
      <point x="553" y="427" type="line"/>
      <point x="684" y="427" type="line"/>
      <point x="704" y="571" type="line"/>
      <point x="355" y="571" type="line"/>
    </contour>
    <component base="h.sc"/>
  </outline>
</glyph>
<glyph name="uni04B1.sc" format="1">
  <advance width="552"/>
  <outline>
    <contour>
      <point x="82" y="261" type="line"/>
      <point x="82" y="159" type="line"/>
      <point x="177" y="159" type="line"/>
      <point x="374" y="159" type="line"/>
      <point x="468" y="159" type="line"/>
      <point x="468" y="261" type="line"/>
    </contour>
    <component base="y.sc"/>
  </outline>
</glyph>
<glyph name="uni04B9.sc" format="1">
  <advance width="559"/>
  <outline>
    <contour>
      <point x="234" y="443" type="line"/>
      <point x="234" y="85" type="line"/>
      <point x="281" y="85" type="line"/>
      <point x="281" y="443" type="line"/>
    </contour>
    <contour>
      <point x="10" y="571" type="line"/>
      <point x="10" y="374" type="line" smooth="yes"/>
      <point x="10" y="249"/>
      <point x="78" y="164"/>
      <point x="203" y="164" type="curve" smooth="yes"/>
      <point x="258" y="164"/>
      <point x="299" y="180"/>
      <point x="332" y="209" type="curve"/>
      <point x="333" y="319" type="line"/>
      <point x="316" y="303"/>
      <point x="294" y="295"/>
      <point x="264" y="295" type="curve" smooth="yes"/>
      <point x="213" y="295"/>
      <point x="198" y="317"/>
      <point x="198" y="373" type="curve" smooth="yes"/>
      <point x="198" y="571" type="line"/>
    </contour>
    <contour>
      <point x="323" y="571" type="line"/>
      <point x="323" y="0" type="line"/>
      <point x="516" y="0" type="line"/>
      <point x="516" y="571" type="line"/>
    </contour>
    <contour>
      <point x="263" y="571" type="move" name="top"/>
    </contour>
    <contour>
      <point x="303" y="0" type="move" name="bottomleft"/>
    </contour>
    <contour>
      <point x="516" y="0" type="move" name="bottomright"/>
    </contour>
    <contour>
      <point x="280" y="0" type="move" name="bottom"/>
    </contour>
  </outline>
</glyph>
<glyph name="uni04BD.sc" format="1">
  <advance width="713"/>
  <outline>
    <contour>
      <point x="368" y="322" type="line"/>
      <point x="365" y="421"/>
      <point x="391" y="450"/>
      <point x="441" y="450" type="curve" smooth="yes"/>
      <point x="488" y="450"/>
      <point x="516" y="425"/>
      <point x="515" y="346" type="curve"/>
      <point x="354" y="346" type="line"/>
      <point x="354" y="220" type="line"/>
      <point x="696" y="220" type="line"/>
      <point x="700" y="238"/>
      <point x="703" y="262"/>
      <point x="703" y="289" type="curve" smooth="yes"/>
      <point x="703" y="461"/>
      <point x="632" y="587"/>
      <point x="439" y="587" type="curve" smooth="yes"/>
      <point x="271" y="587"/>
      <point x="171" y="478"/>
      <point x="171" y="284" type="curve" smooth="yes"/>
      <point x="171" y="89"/>
      <point x="272" y="-18"/>
      <point x="448" y="-18" type="curve" smooth="yes"/>
      <point x="539" y="-18"/>
      <point x="608" y="8"/>
      <point x="669" y="58" type="curve"/>
      <point x="581" y="163" type="line"/>
      <point x="555" y="142"/>
      <point x="521" y="119"/>
      <point x="465" y="119" type="curve" smooth="yes"/>
      <point x="401" y="119"/>
      <point x="367" y="161"/>
      <point x="369" y="239" type="curve"/>
    </contour>
    <contour>
      <point x="-10" y="267"/>
      <point x="49" y="207"/>
      <point x="178" y="207" type="curve" smooth="yes"/>
      <point x="204" y="207" type="line"/>
      <point x="204" y="333" type="line"/>
      <point x="167" y="333" type="line" smooth="yes"/>
      <point x="140" y="333"/>
      <point x="126" y="346"/>
      <point x="126" y="373" type="curve" smooth="yes"/>
      <point x="126" y="395"/>
      <point x="133" y="414"/>
      <point x="139" y="428" type="curve"/>
      <point x="27" y="470" type="line"/>
      <point x="12" y="446"/>
      <point x="-10" y="407"/>
      <point x="-10" y="356" type="curve" smooth="yes"/>
    </contour>
    <contour>
      <point x="575" y="0" type="move" name="ogonek"/>
    </contour>
    <contour>
      <point x="341" y="0" type="move" name="bottom"/>
    </contour>
    <contour>
      <point x="341" y="571" type="move" name="top"/>
    </contour>
  </outline>
</glyph>
<glyph name="uni04FB.sc" format="1">
  <advance width="477"/>
  <outline>
    <contour>
      <point x="63" y="0" type="line"/>
      <point x="322" y="0" type="line"/>
      <point x="322" y="142" type="line"/>
      <point x="63" y="142" type="line"/>
    </contour>
    <component base="uni0493.sc"/>
    <component base="hookHELPER" xOffset="-80"/>
  </outline>
</glyph>
<glyph name="uni0505.sc" format="1">
  <advance width="675"/>
  <outline>
    <contour>
      <point x="459" y="312" type="line"/>
      <point x="461" y="273"/>
      <point x="463" y="237"/>
      <point x="463" y="199" type="curve" smooth="yes"/>
      <point x="463" y="147"/>
      <point x="438" y="124"/>
      <point x="413" y="124" type="curve" smooth="yes"/>
      <point x="393" y="124"/>
      <point x="378" y="133"/>
      <point x="353" y="173" type="curve" smooth="yes"/>
      <point x="311" y="241" type="line"/>
      <point x="123" y="213" type="line"/>
      <point x="172" y="123" type="line" smooth="yes"/>
      <point x="232" y="13"/>
      <point x="305" y="-15"/>
      <point x="407" y="-15" type="curve" smooth="yes"/>
      <point x="537" y="-15"/>
      <point x="655" y="53"/>
      <point x="655" y="195" type="curve" smooth="yes"/>
      <point x="655" y="236"/>
      <point x="653" y="276"/>
      <point x="651" y="312" type="curve"/>
    </contour>
    <contour>
      <point x="10" y="571" type="line"/>
      <point x="10" y="439" type="line"/>
      <point x="150" y="439" type="line" smooth="yes"/>
      <point x="191" y="439"/>
      <point x="217" y="421"/>
      <point x="217" y="384" type="curve" smooth="yes"/>
      <point x="217" y="342"/>
      <point x="198" y="322"/>
      <point x="155" y="322" type="curve" smooth="yes"/>
      <point x="41" y="322" type="line"/>
      <point x="41" y="192" type="line"/>
      <point x="254" y="192" type="line"/>
      <point x="368" y="255"/>
      <point x="417" y="297"/>
      <point x="417" y="384" type="curve" smooth="yes"/>
      <point x="417" y="515"/>
      <point x="329" y="571"/>
      <point x="152" y="571" type="curve" smooth="yes"/>
    </contour>
    <contour>
      <point x="333" y="571" type="move" name="top"/>
    </contour>
    <contour>
      <point x="333" y="0" type="move" name="bottom"/>
    </contour>
  </outline>
</glyph>
<glyph name="uni0507.sc" format="1">
  <advance width="457"/>
  <outline>
    <contour>
      <point x="254" y="192" type="line"/>
      <point x="368" y="255"/>
      <point x="417" y="297"/>
      <point x="417" y="384" type="curve" smooth="yes"/>
      <point x="417" y="515"/>
      <point x="329" y="571"/>
      <point x="152" y="571" type="curve" smooth="yes"/>
      <point x="10" y="571" type="line"/>
      <point x="10" y="439" type="line"/>
      <point x="151" y="439" type="line" smooth="yes"/>
      <point x="191" y="439"/>
      <point x="217" y="421"/>
      <point x="217" y="384" type="curve" smooth="yes"/>
      <point x="217" y="342"/>
      <point x="198" y="322"/>
      <point x="155" y="322" type="curve" smooth="yes"/>
      <point x="41" y="322" type="line"/>
      <point x="41" y="192" type="line"/>
    </contour>
    <contour>
      <point x="472" y="0" type="line"/>
      <point x="319" y="242" type="line"/>
      <point x="143" y="204" type="line"/>
      <point x="255" y="0" type="line"/>
    </contour>
    <component base="descStraightcy.case" xOffset="230" yOffset="-1"/>
    <contour>
      <point x="231" y="571" type="move" name="top"/>
    </contour>
    <contour>
      <point x="231" y="-215" type="move" name="bottom"/>
    </contour>
  </outline>
</glyph>
<glyph name="uni0515.sc" format="1">
  <advance width="788"/>
  <outline>
    <contour>
      <point x="262" y="432" type="line"/>
      <point x="335" y="432" type="line"/>
      <point x="335" y="571" type="line"/>
      <point x="102" y="571" type="line"/>
    </contour>
    <contour>
      <point x="102" y="571" type="line"/>
      <point x="76" y="324" type="line" smooth="yes"/>
      <point x="60" y="169"/>
      <point x="54" y="157"/>
      <point x="-5" y="127" type="curve"/>
      <point x="43" y="-13" type="line"/>
      <point x="214" y="20"/>
      <point x="229" y="102"/>
      <point x="251" y="317" type="curve" smooth="yes"/>
      <point x="263" y="433" type="line"/>
    </contour>
    <component base="x.sc" xOffset="251"/>
    <contour>
      <point x="392" y="571" type="move" name="top"/>
    </contour>
    <contour>
      <point x="392" y="0" type="move" name="bottom"/>
    </contour>
  </outline>
</glyph>
<glyph name="uni052B.sc" format="1">
  <advance width="968"/>
  <outline>
    <contour>
      <point x="684" y="0" type="line"/>
      <point x="684" y="230" type="line"/>
      <point x="722" y="230" type="line"/>
      <point x="786" y="0" type="line"/>
      <point x="983" y="0" type="line"/>
      <point x="873" y="315" type="line"/>
      <point x="967" y="571" type="line"/>
      <point x="780" y="571" type="line"/>
      <point x="718" y="359" type="line"/>
      <point x="684" y="359" type="line"/>
      <point x="684" y="571" type="line"/>
      <point x="511" y="571" type="line"/>
      <point x="511" y="0" type="line"/>
    </contour>
    <contour>
      <point x="461" y="0" type="line"/>
      <point x="461" y="571" type="line"/>
      <point x="113" y="571" type="line"/>
      <point x="88" y="377" type="line" smooth="yes"/>
      <point x="69" y="231"/>
      <point x="44" y="171"/>
      <point x="17" y="139" type="curve"/>
      <point x="145" y="138" type="line"/>
      <point x="214" y="163"/>
      <point x="247" y="252"/>
      <point x="263" y="405" type="curve" smooth="yes"/>
      <point x="266" y="434" type="line"/>
      <point x="288" y="434" type="line"/>
      <point x="288" y="142" type="line"/>
      <point x="22" y="142" type="line"/>
      <point x="22" y="0" type="line"/>
    </contour>
    <contour>
      <point x="629" y="0" type="line"/>
      <point x="629" y="142" type="line"/>
      <point x="490" y="142" type="line"/>
      <point x="490" y="0" type="line"/>
    </contour>
    <contour>
      <point x="615" y="230" type="line"/>
      <point x="615" y="359" type="line"/>
      <point x="394" y="359" type="line"/>
      <point x="394" y="230" type="line"/>
    </contour>
    <component base="descStraightcy" xOffset="227" xScale="-1"/>
    <component base="descStraightcy" xOffset="284"/>
    <contour>
      <point x="484" y="571" type="move" name="top"/>
    </contour>
    <contour>
      <point x="484" y="-215" type="move" name="bottom"/>
    </contour>
  </outline>
</glyph>
<glyph name="uni0E3F.tf" format="1">
  <advance width="560"/>
  <outline>
    <contour>
      <point x="197" y="16" type="line"/>
      <point x="197" y="-165" type="line"/>
      <point x="332" y="-165" type="line"/>
      <point x="332" y="16" type="line"/>
    </contour>
    <contour>
      <point x="197" y="834" type="line"/>
      <point x="197" y="694" type="line"/>
      <point x="332" y="679" type="line"/>
      <point x="332" y="834" type="line"/>
    </contour>
    <contour>
      <point x="16" y="696" type="line"/>
      <point x="16" y="0" type="line"/>
      <point x="252" y="0" type="line" smooth="yes"/>
      <point x="430" y="0"/>
      <point x="563" y="40"/>
      <point x="563" y="207" type="curve" smooth="yes"/>
      <point x="563" y="318"/>
      <point x="486" y="354"/>
      <point x="412" y="370" type="curve"/>
      <point x="473" y="385"/>
      <point x="535" y="427"/>
      <point x="535" y="522" type="curve" smooth="yes"/>
      <point x="535" y="653"/>
      <point x="415" y="696"/>
      <point x="226" y="696" type="curve" smooth="yes"/>
    </contour>
    <contour>
      <point x="309" y="559"/>
      <point x="332" y="541"/>
      <point x="332" y="499" type="curve"/>
      <point x="332" y="447"/>
      <point x="311" y="426"/>
      <point x="249" y="426" type="curve" smooth="yes"/>
      <point x="200" y="426" type="line"/>
      <point x="200" y="300" type="line"/>
      <point x="262" y="300" type="line" smooth="yes"/>
      <point x="324" y="300"/>
      <point x="357" y="278"/>
      <point x="357" y="220" type="curve" smooth="yes"/>
      <point x="357" y="153"/>
      <point x="315" y="141"/>
      <point x="254" y="141" type="curve" smooth="yes"/>
      <point x="216" y="141" type="line"/>
      <point x="216" y="559" type="line"/>
      <point x="245" y="559" type="line" smooth="yes"/>
    </contour>
  </outline>
</glyph>
<glyph name="uni0E3F.tosf" format="1">
  <advance width="560"/>
  <outline>
    <contour>
      <point x="197" y="16" type="line"/>
      <point x="197" y="-165" type="line"/>
      <point x="332" y="-165" type="line"/>
      <point x="332" y="16" type="line"/>
    </contour>
    <contour>
      <point x="197" y="834" type="line"/>
      <point x="197" y="677" type="line"/>
      <point x="332" y="662" type="line"/>
      <point x="332" y="834" type="line"/>
    </contour>
    <contour>
      <point x="16" y="679" type="line"/>
      <point x="16" y="0" type="line"/>
      <point x="252" y="0" type="line" smooth="yes"/>
      <point x="430" y="0"/>
      <point x="563" y="40"/>
      <point x="563" y="202" type="curve" smooth="yes"/>
      <point x="563" y="308"/>
      <point x="486" y="344"/>
      <point x="412" y="360" type="curve"/>
      <point x="473" y="375"/>
      <point x="535" y="415"/>
      <point x="535" y="505" type="curve" smooth="yes"/>
      <point x="535" y="636"/>
      <point x="415" y="679"/>
      <point x="226" y="679" type="curve" smooth="yes"/>
    </contour>
    <contour>
      <point x="309" y="542"/>
      <point x="332" y="524"/>
      <point x="332" y="484" type="curve"/>
      <point x="332" y="437"/>
      <point x="311" y="416"/>
      <point x="249" y="416" type="curve" smooth="yes"/>
      <point x="200" y="416" type="line"/>
      <point x="200" y="290" type="line"/>
      <point x="262" y="290" type="line" smooth="yes"/>
      <point x="324" y="290"/>
      <point x="357" y="268"/>
      <point x="357" y="215" type="curve" smooth="yes"/>
      <point x="357" y="153"/>
      <point x="315" y="141"/>
      <point x="254" y="141" type="curve" smooth="yes"/>
      <point x="216" y="141" type="line"/>
      <point x="216" y="542" type="line"/>
      <point x="245" y="542" type="line" smooth="yes"/>
    </contour>
  </outline>
</glyph>
<glyph name="uni1FBF.case" format="1">
  <advance width="244"/>
  <outline>
    <contour>
      <point x="68" y="713"/>
      <point x="30" y="671"/>
      <point x="30" y="622" type="curve" smooth="yes"/>
      <point x="30" y="588"/>
      <point x="46" y="564"/>
      <point x="68" y="547" type="curve"/>
      <point x="43" y="433" type="line"/>
      <point x="137" y="433" type="line"/>
      <point x="187" y="534" type="line" smooth="yes"/>
      <point x="204" y="569"/>
      <point x="214" y="591"/>
      <point x="214" y="622" type="curve" smooth="yes"/>
      <point x="214" y="674"/>
      <point x="176" y="713"/>
      <point x="122" y="713" type="curve" smooth="yes"/>
    </contour>
    <contour>
      <point x="248" y="696" type="move" name="_topleft"/>
    </contour>
    <contour>
      <point x="124" y="713" type="move" name="top"/>
    </contour>
  </outline>
</glyph>
<glyph name="uni1FCD.case" format="1">
  <advance width="458"/>
  <outline>
    <contour>
      <point x="428" y="449" type="line"/>
      <point x="383" y="710" type="line"/>
      <point x="224" y="671" type="line"/>
      <point x="320" y="428" type="line"/>
    </contour>
    <contour>
      <point x="137" y="433" type="line"/>
      <point x="187" y="534" type="line" smooth="yes"/>
      <point x="204" y="569"/>
      <point x="214" y="591"/>
      <point x="214" y="622" type="curve" smooth="yes"/>
      <point x="214" y="674"/>
      <point x="176" y="713"/>
      <point x="122" y="713" type="curve" smooth="yes"/>
      <point x="68" y="713"/>
      <point x="30" y="671"/>
      <point x="30" y="622" type="curve" smooth="yes"/>
      <point x="30" y="588"/>
      <point x="46" y="564"/>
      <point x="68" y="547" type="curve"/>
      <point x="43" y="433" type="line"/>
    </contour>
    <contour>
      <point x="460" y="696" type="move" name="_topleft"/>
    </contour>
    <contour>
      <point x="222" y="713" type="move" name="top"/>
    </contour>
  </outline>
</glyph>
<glyph name="uni1FCE.case" format="1">
  <advance width="458"/>
  <outline>
    <contour>
      <point x="428" y="671" type="line"/>
      <point x="269" y="710" type="line"/>
      <point x="224" y="449" type="line"/>
      <point x="332" y="428" type="line"/>
    </contour>
    <contour>
      <point x="137" y="433" type="line"/>
      <point x="187" y="534" type="line" smooth="yes"/>
      <point x="204" y="569"/>
      <point x="214" y="591"/>
      <point x="214" y="622" type="curve" smooth="yes"/>
      <point x="214" y="674"/>
      <point x="176" y="713"/>
      <point x="122" y="713" type="curve" smooth="yes"/>
      <point x="68" y="713"/>
      <point x="30" y="671"/>
      <point x="30" y="622" type="curve" smooth="yes"/>
      <point x="30" y="588"/>
      <point x="46" y="564"/>
      <point x="68" y="547" type="curve"/>
      <point x="43" y="433" type="line"/>
    </contour>
    <contour>
      <point x="450" y="696" type="move" name="_topleft"/>
    </contour>
    <contour>
      <point x="234" y="713" type="move" name="top"/>
    </contour>
  </outline>
</glyph>
<glyph name="uni1FCF.case" format="1">
  <advance width="462"/>
  <outline>
    <contour>
      <point x="266" y="298" type="line"/>
      <point x="293" y="346" type="line" smooth="yes"/>
      <point x="313" y="381"/>
      <point x="323" y="403"/>
      <point x="323" y="434" type="curve" smooth="yes"/>
      <point x="323" y="486"/>
      <point x="285" y="525"/>
      <point x="231" y="525" type="curve" smooth="yes"/>
      <point x="177" y="525"/>
      <point x="139" y="483"/>
      <point x="139" y="434" type="curve" smooth="yes"/>
      <point x="139" y="400"/>
      <point x="155" y="376"/>
      <point x="189" y="359" type="curve"/>
      <point x="179" y="298" type="line"/>
    </contour>
    <component base="uni1FC0" yOffset="-88"/>
    <contour>
      <point x="447" y="696" type="move" name="_topleft"/>
    </contour>
    <contour>
      <point x="233" y="715" type="move" name="top"/>
    </contour>
  </outline>
</glyph>
<glyph name="uni1FDD.case" format="1">
  <advance width="458"/>
  <outline>
    <contour>
      <point x="224" y="671" type="line"/>
      <point x="320" y="428" type="line"/>
      <point x="428" y="449" type="line"/>
      <point x="383" y="710" type="line"/>
    </contour>
    <contour>
      <point x="68" y="713"/>
      <point x="30" y="674"/>
      <point x="30" y="622" type="curve" smooth="yes"/>
      <point x="30" y="591"/>
      <point x="40" y="569"/>
      <point x="57" y="534" type="curve" smooth="yes"/>
      <point x="107" y="433" type="line"/>
      <point x="201" y="433" type="line"/>
      <point x="176" y="547" type="line"/>
      <point x="198" y="564"/>
      <point x="214" y="588"/>
      <point x="214" y="622" type="curve" smooth="yes"/>
      <point x="214" y="671"/>
      <point x="176" y="713"/>
      <point x="122" y="713" type="curve" smooth="yes"/>
    </contour>
    <contour>
      <point x="460" y="696" type="move" name="_topleft"/>
    </contour>
    <contour>
      <point x="233" y="713" type="move" name="top"/>
    </contour>
  </outline>
</glyph>
<glyph name="uni1FDE.case" format="1">
  <advance width="468"/>
  <outline>
    <contour>
      <point x="234" y="449" type="line"/>
      <point x="342" y="428" type="line"/>
      <point x="438" y="671" type="line"/>
      <point x="279" y="710" type="line"/>
    </contour>
    <contour>
      <point x="68" y="713"/>
      <point x="30" y="674"/>
      <point x="30" y="622" type="curve" smooth="yes"/>
      <point x="30" y="591"/>
      <point x="40" y="569"/>
      <point x="57" y="534" type="curve" smooth="yes"/>
      <point x="107" y="433" type="line"/>
      <point x="201" y="433" type="line"/>
      <point x="176" y="547" type="line"/>
      <point x="198" y="564"/>
      <point x="214" y="588"/>
      <point x="214" y="622" type="curve" smooth="yes"/>
      <point x="214" y="671"/>
      <point x="176" y="713"/>
      <point x="122" y="713" type="curve" smooth="yes"/>
    </contour>
    <contour>
      <point x="460" y="696" type="move" name="_topleft"/>
    </contour>
    <contour>
      <point x="225" y="713" type="move" name="top"/>
    </contour>
  </outline>
</glyph>
<glyph name="uni1FDF.case" format="1">
  <advance width="462"/>
  <outline>
    <contour>
      <point x="275" y="359" type="line"/>
      <point x="307" y="376"/>
      <point x="323" y="400"/>
      <point x="323" y="434" type="curve" smooth="yes"/>
      <point x="323" y="483"/>
      <point x="285" y="525"/>
      <point x="231" y="525" type="curve" smooth="yes"/>
      <point x="177" y="525"/>
      <point x="139" y="486"/>
      <point x="139" y="434" type="curve" smooth="yes"/>
      <point x="139" y="403"/>
      <point x="149" y="381"/>
      <point x="169" y="346" type="curve" smooth="yes"/>
      <point x="196" y="298" type="line"/>
      <point x="283" y="298" type="line"/>
    </contour>
    <component base="uni1FC0" yOffset="-88"/>
    <contour>
      <point x="447" y="696" type="move" name="_topleft"/>
    </contour>
    <contour>
      <point x="233" y="715" type="move" name="top"/>
    </contour>
  </outline>
</glyph>
<glyph name="uni1FEF.case" format="1">
  <advance width="287"/>
  <outline>
    <contour>
      <point x="30" y="696" type="line"/>
      <point x="131" y="449" type="line"/>
      <point x="257" y="470" type="line"/>
      <point x="219" y="735" type="line"/>
    </contour>
    <contour>
      <point x="287" y="696" type="move" name="_topleft"/>
    </contour>
  </outline>
</glyph>
<glyph name="uni1FFD.case" format="1">
  <advance width="287"/>
  <outline>
    <contour>
      <point x="30" y="470" type="line"/>
      <point x="156" y="449" type="line"/>
      <point x="257" y="696" type="line"/>
      <point x="68" y="735" type="line"/>
    </contour>
    <contour>
      <point x="277" y="696" type="move" name="_topleft"/>
    </contour>
    <contour>
      <point x="165" y="734" type="move" name="top"/>
    </contour>
  </outline>
</glyph>
<glyph name="uni20A6.tf" format="1">
  <advance width="560"/>
  <outline>
    <contour>
      <point x="-6" y="333" type="line"/>
      <point x="-6" y="252" type="line"/>
      <point x="565" y="252" type="line"/>
      <point x="565" y="333" type="line"/>
    </contour>
    <contour>
      <point x="-6" y="450" type="line"/>
      <point x="-6" y="369" type="line"/>
      <point x="565" y="369" type="line"/>
      <point x="565" y="450" type="line"/>
    </contour>
    <contour>
      <point x="370" y="696" type="line"/>
      <point x="370" y="469" type="line" smooth="yes"/>
      <point x="370" y="345"/>
      <point x="376" y="267"/>
      <point x="389" y="150" type="curve"/>
      <point x="261" y="696" type="line"/>
      <point x="36" y="696" type="line"/>
      <point x="36" y="0" type="line"/>
      <point x="187" y="0" type="line"/>
      <point x="187" y="210" type="line" smooth="yes"/>
      <point x="187" y="343"/>
      <point x="180" y="447"/>
      <point x="170" y="544" type="curve"/>
      <point x="294" y="0" type="line"/>
      <point x="524" y="0" type="line"/>
      <point x="524" y="696" type="line"/>
    </contour>
  </outline>
</glyph>
<glyph name="uni20A9.tf" format="1">
  <advance width="900"/>
  <outline>
    <contour>
      <point x="33" y="323" type="line"/>
      <point x="33" y="242" type="line"/>
      <point x="866" y="242" type="line"/>
      <point x="866" y="323" type="line"/>
    </contour>
    <contour>
      <point x="33" y="440" type="line"/>
      <point x="33" y="359" type="line"/>
      <point x="866" y="359" type="line"/>
      <point x="866" y="440" type="line"/>
    </contour>
    <contour>
      <point x="674" y="696" type="line"/>
      <point x="616" y="145" type="line"/>
      <point x="556" y="696" type="line"/>
      <point x="347" y="696" type="line"/>
      <point x="276" y="145" type="line"/>
      <point x="233" y="696" type="line"/>
      <point x="33" y="696" type="line"/>
      <point x="127" y="0" type="line"/>
      <point x="381" y="0" type="line"/>
      <point x="448" y="506" type="line"/>
      <point x="508" y="0" type="line"/>
      <point x="768" y="0" type="line"/>
      <point x="866" y="696" type="line"/>
    </contour>
  </outline>
</glyph>
<glyph name="uni20AA.tosf" format="1">
  <advance width="900"/>
  <outline>
    <contour>
      <point x="631" y="0" type="line" smooth="yes"/>
      <point x="843" y="0"/>
      <point x="893" y="84"/>
      <point x="893" y="247" type="curve" smooth="yes"/>
      <point x="893" y="571" type="line"/>
      <point x="722" y="571" type="line"/>
      <point x="722" y="268" type="line" smooth="yes"/>
      <point x="722" y="167"/>
      <point x="688" y="141"/>
      <point x="601" y="141" type="curve" smooth="yes"/>
      <point x="291" y="141" type="line"/>
      <point x="291" y="0" type="line"/>
    </contour>
    <contour>
      <point x="237" y="0" type="line"/>
      <point x="237" y="300" type="line" smooth="yes"/>
      <point x="237" y="378"/>
      <point x="237" y="438"/>
      <point x="254" y="471" type="curve"/>
      <point x="213" y="471" type="line"/>
      <point x="186" y="451"/>
      <point x="68" y="424"/>
      <point x="68" y="222" type="curve" smooth="yes"/>
      <point x="68" y="0" type="line"/>
    </contour>
    <contour>
      <point x="453" y="0" type="line"/>
      <point x="453" y="362" type="line"/>
      <point x="291" y="362" type="line"/>
      <point x="291" y="0" type="line"/>
    </contour>
    <contour>
      <point x="668" y="210" type="line"/>
      <point x="668" y="324" type="line" smooth="yes"/>
      <point x="668" y="517"/>
      <point x="584" y="571"/>
      <point x="383" y="571" type="curve" smooth="yes"/>
      <point x="36" y="571" type="line"/>
      <point x="36" y="430" type="line"/>
      <point x="379" y="430" type="line" smooth="yes"/>
      <point x="468" y="430"/>
      <point x="508" y="416"/>
      <point x="508" y="284" type="curve" smooth="yes"/>
      <point x="508" y="209" type="line"/>
    </contour>
  </outline>
</glyph>
<glyph name="uni20B4.tf" format="1">
  <advance width="560"/>
  <outline>
    <contour>
      <point x="183" y="716"/>
      <point x="107" y="683"/>
      <point x="49" y="623" type="curve"/>
      <point x="132" y="519" type="line"/>
      <point x="175" y="555"/>
      <point x="219" y="574"/>
      <point x="270" y="574" type="curve" smooth="yes"/>
      <point x="323" y="574"/>
      <point x="340" y="552"/>
      <point x="340" y="520" type="curve" smooth="yes"/>
      <point x="340" y="470"/>
      <point x="322" y="459"/>
      <point x="224" y="418" type="curve" smooth="yes"/>
      <point x="91" y="362"/>
      <point x="32" y="323"/>
      <point x="32" y="206" type="curve" smooth="yes"/>
      <point x="32" y="71"/>
      <point x="125" y="-20"/>
      <point x="294" y="-20" type="curve" smooth="yes"/>
      <point x="417" y="-20"/>
      <point x="500" y="29"/>
      <point x="553" y="82" type="curve"/>
      <point x="460" y="190" type="line"/>
      <point x="413" y="148"/>
      <point x="362" y="124"/>
      <point x="302" y="124" type="curve" smooth="yes"/>
      <point x="239" y="124"/>
      <point x="221" y="150"/>
      <point x="221" y="190" type="curve" smooth="yes"/>
      <point x="221" y="249"/>
      <point x="241" y="262"/>
      <point x="335" y="299" type="curve" smooth="yes"/>
      <point x="488" y="359"/>
      <point x="527" y="411"/>
      <point x="527" y="504" type="curve" smooth="yes"/>
      <point x="527" y="637"/>
      <point x="419" y="716"/>
      <point x="286" y="716" type="curve" smooth="yes"/>
    </contour>
    <contour>
      <point x="4" y="325" type="line"/>
      <point x="4" y="234" type="line"/>
      <point x="556" y="234" type="line"/>
      <point x="556" y="325" type="line"/>
    </contour>
    <contour>
      <point x="4" y="452" type="line"/>
      <point x="4" y="361" type="line"/>
      <point x="556" y="361" type="line"/>
      <point x="556" y="452" type="line"/>
    </contour>
  </outline>
</glyph>
<glyph name="uni20B9.tosf" format="1">
  <advance width="560"/>
  <outline>
    <contour>
      <point x="514" y="0" type="line"/>
      <point x="336" y="274" type="line"/>
      <point x="165" y="236" type="line"/>
      <point x="301" y="0" type="line"/>
    </contour>
    <contour>
      <point x="523" y="414" type="line"/>
      <point x="523" y="509" type="line"/>
      <point x="55" y="509" type="line"/>
      <point x="55" y="414" type="line"/>
    </contour>
    <contour>
      <point x="55" y="680" type="line"/>
      <point x="55" y="575" type="line"/>
      <point x="173" y="575" type="line" smooth="yes"/>
      <point x="234" y="575"/>
      <point x="267" y="548"/>
      <point x="267" y="458" type="curve" smooth="yes"/>
      <point x="267" y="359"/>
      <point x="239" y="337"/>
      <point x="173" y="337" type="curve" smooth="yes"/>
      <point x="55" y="337" type="line"/>
      <point x="55" y="232" type="line"/>
      <point x="271" y="232" type="line"/>
      <point x="407" y="275"/>
      <point x="467" y="339"/>
      <point x="467" y="434" type="curve" smooth="yes"/>
      <point x="467" y="504"/>
      <point x="436" y="560"/>
      <point x="379" y="585" type="curve"/>
      <point x="523" y="585" type="line"/>
      <point x="523" y="680" type="line"/>
    </contour>
  </outline>
</glyph>
<glyph name="uniA7B2.sc" format="1">
  <advance width="332"/>
  <outline>
    <contour>
      <point x="233" y="-227"/>
      <point x="303" y="-138"/>
      <point x="303" y="57" type="curve" smooth="yes"/>
      <point x="303" y="571" type="line"/>
      <point x="106" y="571" type="line"/>
      <point x="106" y="-31" type="line" smooth="yes"/>
      <point x="106" y="-107"/>
      <point x="89" y="-133"/>
      <point x="53" y="-133" type="curve" smooth="yes"/>
      <point x="29" y="-133"/>
      <point x="16" y="-120"/>
      <point x="16" y="-97" type="curve" smooth="yes"/>
      <point x="16" y="-69"/>
      <point x="34" y="-55"/>
      <point x="71" y="-55" type="curve" smooth="yes"/>
      <point x="90" y="-55"/>
      <point x="111" y="-56"/>
      <point x="120" y="-58" type="curve"/>
      <point x="123" y="30" type="line"/>
      <point x="113" y="31"/>
      <point x="86" y="32"/>
      <point x="72" y="32" type="curve" smooth="yes"/>
      <point x="-26" y="32"/>
      <point x="-90" y="-15"/>
      <point x="-90" y="-103" type="curve" smooth="yes"/>
      <point x="-90" y="-181"/>
      <point x="-35" y="-227"/>
      <point x="69" y="-227" type="curve" smooth="yes"/>
    </contour>
    <contour>
      <point x="396" y="-41" type="line"/>
      <point x="361" y="-22"/>
      <point x="328" y="-8"/>
      <point x="283" y="5" type="curve"/>
      <point x="265" y="-81" type="line"/>
      <point x="292" y="-89"/>
      <point x="338" y="-105"/>
      <point x="363" y="-117" type="curve"/>
    </contour>
    <contour>
      <point x="200" y="571" type="move" name="top"/>
    </contour>
    <contour>
      <point x="162" y="-215" type="move" name="bottom"/>
    </contour>
  </outline>
</glyph>
